<svg width="363" height="86" viewBox="0 0 363 86" fill="none" xmlns="http://www.w3.org/2000/svg">
<path d="M186.869 47.9863V52.7674H155.804V64.5029H191.803C192.523 64.5029 193.243 64.3 193.962 63.8944C194.733 63.4887 195.401 62.9671 195.967 62.3296C196.583 61.6342 197.072 60.8808 197.431 60.0695C197.791 59.2002 197.971 58.3309 197.971 57.4616V44.3352C197.971 43.4659 197.791 42.6256 197.431 41.8143C197.072 40.945 196.583 40.1916 195.967 39.5541C195.401 38.8587 194.733 38.3081 193.962 37.9025C193.243 37.4968 192.523 37.2939 191.803 37.2939H166.323V32.5128H196.727V20.7773H161.388C160.669 20.7773 159.924 20.9802 159.153 21.3859C158.433 21.7915 157.765 22.3421 157.148 23.0375C156.583 23.675 156.12 24.4284 155.76 25.2977C155.401 26.109 155.221 26.9493 155.221 27.8186V40.945C155.221 41.8143 155.401 42.6836 155.76 43.5529C156.12 44.3642 156.583 45.1176 157.148 45.813C157.765 46.4505 158.433 46.9721 159.153 47.3778C159.924 47.7834 160.669 47.9863 161.388 47.9863H186.869Z" fill="url(#paint0_linear_3386_2405)"/>
<path d="M240.027 37.2939V32.5128H218.395V52.7674H251.129V64.5029H213.461C212.741 64.5029 211.996 64.3 211.225 63.8944C210.506 63.4887 209.837 62.9671 209.221 62.3296C208.655 61.6342 208.193 60.8808 207.833 60.0695C207.473 59.2002 207.293 58.3309 207.293 57.4616V27.8186C207.293 26.9493 207.473 26.109 207.833 25.2977C208.193 24.4284 208.655 23.675 209.221 23.0375C209.837 22.3421 210.506 21.7915 211.225 21.3859C211.996 20.9802 212.741 20.7773 213.461 20.7773H244.961C245.68 20.7773 246.4 20.9802 247.119 21.3859C247.89 21.7915 248.559 22.3421 249.124 23.0375C249.741 23.675 250.229 24.4284 250.589 25.2977C250.949 26.109 251.129 26.9493 251.129 27.8186V40.945C251.129 41.8143 250.949 42.6836 250.589 43.5529C250.229 44.3642 249.741 45.1176 249.124 45.813C248.559 46.4505 247.89 46.9721 247.119 47.3778C246.4 47.7834 245.68 47.9863 244.961 47.9863H216.413V37.2939H240.027Z" fill="url(#paint1_linear_3386_2405)"/>
<path d="M259.77 37.2939V64.5029H270.872V47.9863H278.472L301.061 81.8888H313.551L291.732 47.9863H294.893C295.613 47.9863 296.332 47.7834 297.052 47.3778C297.823 46.9721 298.491 46.4505 299.057 45.813C299.673 45.1176 300.162 44.3642 300.521 43.5529C300.881 42.6836 301.061 41.8143 301.061 40.945V27.8186C301.061 26.9493 300.881 26.109 300.521 25.2977C300.162 24.4284 299.673 23.675 299.057 23.0375C298.491 22.3421 297.823 21.7915 297.052 21.3859C296.332 20.9802 295.613 20.7773 294.893 20.7773H259.77V32.5128H289.959V37.2939H259.77Z" fill="url(#paint2_linear_3386_2405)"/>
<path d="M320.789 64.5029V40.0757C323.256 45.0017 325.569 49.2902 327.727 52.9412C329.938 56.5343 331.582 59.1712 332.662 60.8518C333.69 62.4745 335.039 64.5029 335.039 64.5029H337.839L340.017 60.8518C341.096 59.1712 342.723 56.5343 344.882 52.9412C347.092 49.2902 349.431 45.0017 351.898 40.0757V64.5029H363V26.2539C363 25.6164 362.82 24.9789 362.46 24.3415C362.152 23.646 361.715 23.0375 361.149 22.5159C360.584 21.9944 359.916 21.5887 359.145 21.2989C358.374 20.9512 357.551 20.7773 356.678 20.7773H353.671C352.283 21.0092 350.921 21.5887 349.585 22.5159C348.3 23.4432 347.272 24.6312 346.501 26.08L336.284 49.1726L326.186 26.08C325.415 24.6312 324.361 23.4432 323.025 22.5159C321.74 21.5887 320.403 21.0092 319.016 20.7773H316.009C315.135 20.7773 314.313 20.9512 313.542 21.2989C312.771 21.5887 312.103 21.9944 311.537 22.5159C310.972 23.0375 310.509 23.646 310.149 24.3415C309.841 24.9789 309.687 25.6164 309.687 26.2539V64.5029H320.789Z" fill="url(#paint3_linear_3386_2405)"/>
<path d="M53.1921 0H79.3069L97.9812 24.9363L97.9985 24.9134L111.166 42.6753L111.112 42.748L142.846 85.7937H116.166L97.9812 60.39L79.3069 85.3263H53.1921L84.8508 42.748L53.1921 0Z" fill="url(#paint4_linear_3386_2405)"/>
<path d="M116.902 34.9651L142.916 0H116.801L103.776 17.2585L116.902 34.9651Z" fill="url(#paint5_linear_3386_2405)"/>
<path d="M21.7953 53.1196V85.3648H0L7.58545e-06 32.1726H21.7953V32.2452H55.1856V53.1196H21.7953Z" fill="url(#paint6_linear_3386_2405)"/>
<path d="M77.2143 22.7353V5.23643e-05H12.1085L1.21706e-05 0.0196677L8.93125e-06 22.7353H77.2143Z" fill="url(#paint7_linear_3386_2405)"/>
<path d="M103.812 17.1587L116.681 0H142.848L116.895 34.7464L103.812 17.1587Z" fill="url(#paint8_linear_3386_2405)"/>
<defs>
<linearGradient id="paint0_linear_3386_2405" x1="363" y1="75.7776" x2="325" y2="-28.735" gradientUnits="userSpaceOnUse">
<stop stop-color="#FF0000"/>
<stop offset="1" stop-color="#FF005C"/>
</linearGradient>
<linearGradient id="paint1_linear_3386_2405" x1="363" y1="75.7776" x2="325" y2="-28.735" gradientUnits="userSpaceOnUse">
<stop stop-color="#FF0000"/>
<stop offset="1" stop-color="#FF005C"/>
</linearGradient>
<linearGradient id="paint2_linear_3386_2405" x1="363" y1="75.7776" x2="325" y2="-28.735" gradientUnits="userSpaceOnUse">
<stop stop-color="#FF0000"/>
<stop offset="1" stop-color="#FF005C"/>
</linearGradient>
<linearGradient id="paint3_linear_3386_2405" x1="363" y1="75.7776" x2="325" y2="-28.735" gradientUnits="userSpaceOnUse">
<stop stop-color="#FF0000"/>
<stop offset="1" stop-color="#FF005C"/>
</linearGradient>
<linearGradient id="paint4_linear_3386_2405" x1="6.00556" y1="12.8691" x2="120.111" y2="60.4846" gradientUnits="userSpaceOnUse">
<stop offset="0.360015" stop-color="#65718A"/>
<stop offset="1" stop-color="#8C93AD"/>
</linearGradient>
<linearGradient id="paint5_linear_3386_2405" x1="6.00556" y1="12.8691" x2="120.111" y2="60.4846" gradientUnits="userSpaceOnUse">
<stop offset="0.360015" stop-color="#65718A"/>
<stop offset="1" stop-color="#8C93AD"/>
</linearGradient>
<linearGradient id="paint6_linear_3386_2405" x1="6.00556" y1="12.8691" x2="120.111" y2="60.4846" gradientUnits="userSpaceOnUse">
<stop offset="0.360015" stop-color="#65718A"/>
<stop offset="1" stop-color="#8C93AD"/>
</linearGradient>
<linearGradient id="paint7_linear_3386_2405" x1="6.00556" y1="12.8691" x2="120.111" y2="60.4846" gradientUnits="userSpaceOnUse">
<stop offset="0.360015" stop-color="#65718A"/>
<stop offset="1" stop-color="#8C93AD"/>
</linearGradient>
<linearGradient id="paint8_linear_3386_2405" x1="142.848" y1="31.2718" x2="109.361" y2="0.83988" gradientUnits="userSpaceOnUse">
<stop stop-color="#FF0000"/>
<stop offset="1" stop-color="#FF005C"/>
</linearGradient>
</defs>
</svg>
