<svg width="80" height="80" viewBox="0 0 80 80" fill="none" xmlns="http://www.w3.org/2000/svg">
<path d="M21.5238 21.4995C23.2082 21.4995 24.5769 20.1308 24.5769 18.4464C24.5769 16.7619 23.2082 15.3933 21.5238 15.3933C19.8393 15.3933 18.4707 16.7619 18.4707 18.4464C18.4707 20.1308 19.8393 21.4995 21.5238 21.4995Z" fill="#F52858"/>
<path d="M43.4573 59.7156C44.6388 60.9087 46.5572 60.9321 47.762 59.7507C47.9609 59.5518 48.1247 59.3413 48.265 59.1073L58.9918 40.5315L59.9977 47.6436C60.2317 49.3047 61.7641 50.4745 63.4252 50.2405C65.0862 50.0066 66.256 48.4742 66.022 46.8131L63.7761 30.9628V30.9511L63.7644 30.881L63.7527 30.8108C63.6708 30.3663 63.4953 29.9568 63.238 29.6059C63.1912 29.5474 63.1561 29.4889 63.1093 29.4304L63.0859 29.4071L63.0742 29.3954L63.0391 29.3486L63.0274 29.3369L63.004 29.3018L62.9806 29.2784L62.9455 29.255L62.9222 29.2316C62.8403 29.1497 62.7467 29.0678 62.6531 28.9859L62.6063 28.9508L62.5946 28.9391L62.5478 28.9041H62.5361L62.4776 28.869L62.4192 28.8339L62.3607 28.7988L62.3022 28.7637H62.2905C62.2437 28.7403 62.1969 28.7169 62.1501 28.6935L62.1033 28.6701L62.0799 28.6584C62.0097 28.6233 61.9396 28.5999 61.8694 28.5648L61.8343 28.5531L61.7992 28.5414L61.7641 28.5297L61.729 28.518L61.6939 28.5063L61.6588 28.4946L61.6237 28.4829L61.5769 28.4712L61.5418 28.4595L61.495 28.4478L61.46 28.4362L61.4132 28.4245L61.3898 28.4128L61.343 28.4011L61.2728 28.3894H61.2494L61.2026 28.3777H61.1792H61.1324H61.0973H61.0505H61.0154H60.9686H60.957L60.8166 28.366H60.7815H60.7464H60.7347H60.606H60.5592H60.5358C60.4891 28.366 60.4423 28.3777 60.3955 28.3777L60.337 28.3894H60.3253H60.3136H60.3019L60.2668 28.4011C60.0094 28.4479 59.7638 28.518 59.5298 28.6233L44.4867 34.6476C42.9309 35.2676 42.1706 37.0456 42.7906 38.6014C43.4222 40.1572 45.1886 40.9175 46.7444 40.2975L53.7278 37.5018L44.9897 52.6385L38.0647 45.5615C37.8893 45.386 37.6904 45.2222 37.4681 45.0936C36.0293 44.2279 34.1694 44.6841 33.3038 46.1229L18.5414 70.5476C17.6758 71.9864 18.132 73.8463 19.5708 74.7236C21.0096 75.5892 22.8695 75.133 23.7468 73.6942L36.4738 52.5683L43.4573 59.7156Z" fill="#F52858"/>
<path d="M32.5202 18.4464C32.5202 16.7619 31.1516 15.3933 29.4671 15.3933C27.7827 15.3933 26.4141 16.7619 26.4141 18.4464C26.4141 20.1308 27.7827 21.4995 29.4671 21.4995C31.1516 21.4995 32.5202 20.1308 32.5202 18.4464Z" fill="#F52858"/>
<path d="M66.4197 21.4995C68.1042 21.4995 69.4728 20.1308 69.4728 18.4464C69.4728 16.7619 68.1042 15.3933 66.4197 15.3933H39.0824C37.3979 15.3933 36.0293 16.7619 36.0293 18.4464C36.0293 20.1308 37.3979 21.4995 39.0824 21.4995H66.4197Z" fill="#F52858"/>
<path d="M77.988 8.01199C76.7364 6.76035 75.0285 6 73.1686 6H6.81971C4.93639 6 3.24024 6.77204 2.00029 8.00029H2.01199C0.772042 9.24024 0 10.9481 0 12.8197V64.3009C0 66.1842 0.772043 67.8921 2.00029 69.1203C3.24024 70.3603 4.94809 71.1206 6.81971 71.1206C9.27621 71.1206 11.7444 71.1206 14.2009 71.1206C15.8854 71.1206 17.254 69.752 17.254 68.0676C17.254 66.3831 15.8854 65.0145 14.2009 65.0145C11.7444 65.0145 9.27621 65.0145 6.81971 65.0145C6.62085 65.0145 6.44539 64.9326 6.31671 64.8039C6.18804 64.6752 6.10616 64.4881 6.10616 64.3009V12.8197C6.10616 12.6209 6.18804 12.4337 6.30502 12.305H6.31671C6.44539 12.1763 6.63255 12.0945 6.81971 12.0945H73.1686C73.3674 12.0945 73.5546 12.1763 73.6833 12.2933L73.695 12.305C73.8237 12.4337 73.8938 12.6092 73.8938 12.8197V64.3009C73.8938 64.4998 73.812 64.6752 73.6833 64.8039V64.8156C73.5546 64.9443 73.3791 65.0145 73.1686 65.0145C59.8567 65.0145 46.5448 65.0145 33.2446 65.0145C31.5602 65.0145 30.1915 66.3831 30.1915 68.0676C30.1915 69.752 31.5602 71.1206 33.2446 71.1206C46.5565 71.1206 59.8684 71.1206 73.1686 71.1206C75.0402 71.1206 76.7481 70.3486 77.988 69.1086L77.9997 69.1203C79.228 67.8804 80 66.1725 80 64.3009V12.8197C80 10.9598 79.228 9.25194 77.988 8.01199Z" fill="white"/>
<path d="M10.5156 18.4464C10.5156 20.1308 11.8842 21.4995 13.5687 21.4995C15.2532 21.4995 16.6218 20.1308 16.6218 18.4464C16.6218 16.7619 15.2532 15.3933 13.5687 15.3933C11.8842 15.405 10.5156 16.7619 10.5156 18.4464Z" fill="#F52858"/>
</svg>
