<svg width="80" height="80" viewBox="0 0 80 80" fill="none" xmlns="http://www.w3.org/2000/svg">
<path d="M39.3099 10C51.9093 10 62.1217 20.2115 62.1217 32.8099C62.1217 45.4083 51.9093 55.6199 39.3099 55.6199C26.7104 55.6199 16.498 45.4083 16.498 32.8099C16.498 20.2115 26.7104 10 39.3099 10Z" stroke="#F52858" stroke-width="4" stroke-linecap="round" stroke-linejoin="round"/>
<path d="M60.7518 48.9292L75.0593 63.2357L67.8691 70.4235L53.1582 55.7138" stroke="#F52858" stroke-width="4" stroke-linecap="round" stroke-linejoin="round"/>
<path d="M39.3476 20.9487C42.4062 20.9487 44.8863 23.5655 44.8863 26.7917C44.8863 28.9724 43.7549 30.872 42.0759 31.8774C41.2529 32.3884 40.2948 32.6822 39.2692 32.6822C36.2106 32.6822 33.7305 30.0654 33.7305 26.8392C33.7305 24.6585 34.862 22.7589 36.5391 21.7553C37.3621 21.2443 38.322 20.9506 39.3458 20.9506L39.3476 20.9487Z" stroke="white" stroke-width="4" stroke-linecap="round" stroke-linejoin="round"/>
<path d="M51.6561 45.9861L51.1853 39.9132C50.9937 35.2892 28.4137 35.6341 27.6837 39.8676C27.1581 42.1687 27.0303 41.7709 26.9609 45.988" stroke="white" stroke-width="4" stroke-linecap="round" stroke-linejoin="round"/>
<path d="M34.0759 44.7456L34.0176 49.8167" stroke="white" stroke-width="4" stroke-linecap="round" stroke-linejoin="round"/>
<path d="M44.5996 49.8167L44.543 44.7456" stroke="white" stroke-width="4" stroke-linecap="round" stroke-linejoin="round"/>
<path d="M11.7606 30.3638C11.1365 29.4186 10.7715 28.269 10.7715 27.0299C10.7715 24.8493 11.903 22.9497 13.5801 21.946C13.706 21.8676 13.8337 21.7946 13.9669 21.7271" stroke="white" stroke-width="4" stroke-linecap="round" stroke-linejoin="round"/>
<path d="M11.9732 37.0439C8.09699 37.5074 4.98546 38.5276 4.72267 40.0567C4.19709 42.3578 4.06935 45.2445 4 49.4617" stroke="white" stroke-width="4" stroke-linecap="round" stroke-linejoin="round"/>
<path d="M11.1131 44.9351L11.0547 50.008" stroke="white" stroke-width="4" stroke-linecap="round" stroke-linejoin="round"/>
<path d="M66.96 32.3872C68.9182 31.4857 70.2869 29.4274 70.2869 27.0278C70.2869 24.8472 69.1554 22.9475 67.4782 21.9439C66.6552 21.4329 65.6953 21.1392 64.6715 21.1392C64.5766 21.1392 64.4836 21.141 64.3887 21.1465" stroke="white" stroke-width="4" stroke-linecap="round" stroke-linejoin="round"/>
<path d="M66.6738 36.833C71.5975 37.1195 76.0193 38.2236 76.3369 40.0575C76.8624 42.3586 76.9902 45.2453 77.0595 49.4624" stroke="white" stroke-width="4" stroke-linecap="round" stroke-linejoin="round"/>
<path d="M69.9453 44.9351L70.0019 50.008" stroke="white" stroke-width="4" stroke-linecap="round" stroke-linejoin="round"/>
</svg>
