<svg width="80" height="80" viewBox="0 0 80 80" fill="none" xmlns="http://www.w3.org/2000/svg">
<path d="M39.9329 39.1982C43.5145 39.1982 46.4188 42.3714 46.4188 46.2881C46.4188 48.9335 45.0938 51.2391 43.1278 52.4571C42.164 53.0768 41.0421 53.4337 39.8411 53.4337C36.2595 53.4337 33.3555 50.2605 33.3555 46.3437C33.3555 43.6983 34.6803 41.3928 36.6442 40.1748C37.608 39.5551 38.732 39.1982 39.9308 39.1982H39.9329Z" stroke="white" stroke-width="4" stroke-linecap="round" stroke-linejoin="round"/>
<path d="M7.57088 4H72.6183C74.58 4 76.1871 5.60687 76.1871 7.56845V22.0966C76.1871 24.0582 74.58 25.665 72.6183 25.665H61.8009L61.756 33.5093L54.1036 25.665H43.9423L40.0934 33.5093L36.2448 25.665H26.0835L18.4309 33.5093L18.386 25.665H7.56879C5.60705 25.665 4 24.0603 4 22.0966V7.56845C4 5.60687 5.60491 4 7.56879 4H7.57088Z" stroke="white" stroke-width="4" stroke-linecap="round" stroke-linejoin="round"/>
<path d="M18.884 39.1982C22.4655 39.1982 25.3698 42.3714 25.3698 46.2881C25.3698 48.9335 24.0448 51.2391 22.0809 52.4571C21.1171 53.0768 19.9952 53.4337 18.7942 53.4337C15.2127 53.4337 12.3086 50.2605 12.3086 46.3437C12.3086 43.6983 13.6334 41.3928 15.5973 40.1748C16.5611 39.5551 17.6851 39.1982 18.884 39.1982Z" stroke="white" stroke-width="4" stroke-linecap="round" stroke-linejoin="round"/>
<path d="M48.6718 76.0006L48.6055 68.0752" stroke="white" stroke-width="4" stroke-linecap="round" stroke-linejoin="round"/>
<path d="M54.4665 75.9966L53.9151 62.2056C53.6907 56.5965 27.2499 57.0132 26.3951 62.1501C25.7796 64.9429 25.63 70.8811 25.5488 75.9966" stroke="white" stroke-width="4" stroke-linecap="round" stroke-linejoin="round"/>
<path d="M31.6642 68.0752L31.5957 76.0006" stroke="white" stroke-width="4" stroke-linecap="round" stroke-linejoin="round"/>
<path d="M28.5751 59.158C21.0679 57.0789 5.79061 58.2648 5.14311 62.1496C4.52766 64.9424 4.37808 70.8805 4.29688 75.9961" stroke="white" stroke-width="4" stroke-linecap="round" stroke-linejoin="round"/>
<path d="M10.4142 68.0752L10.3457 76.0006" stroke="white" stroke-width="4" stroke-linecap="round" stroke-linejoin="round"/>
<path d="M52.0566 59.158C59.5638 57.0789 74.841 58.2648 75.4885 62.1496C76.1039 64.9424 76.2535 70.8805 76.3347 75.9961" stroke="white" stroke-width="4" stroke-linecap="round" stroke-linejoin="round"/>
<path d="M70.2188 68.0752L70.2849 76.0006" stroke="white" stroke-width="4" stroke-linecap="round" stroke-linejoin="round"/>
<path d="M61.7474 39.1982C58.1658 39.1982 55.2617 42.3714 55.2617 46.2881C55.2617 48.9335 56.5865 51.2391 58.5525 52.4571C59.5163 53.0768 60.6384 53.4337 61.8394 53.4337C65.421 53.4337 68.325 50.2605 68.325 46.3437C68.325 43.6983 67.0002 41.3928 65.0363 40.1748C64.0725 39.553 62.9483 39.1982 61.7494 39.1982H61.7474Z" stroke="white" stroke-width="4" stroke-linecap="round" stroke-linejoin="round"/>
<path d="M21.4364 14.1034H19.761V20H17.0428V14.1034H16V12.7556L17.0984 12.0817V11.9483C17.0984 11.2604 17.1888 10.7011 17.3695 10.2706C17.5503 9.83535 17.8376 9.51478 18.2316 9.30887C18.6255 9.10296 19.14 9 19.7749 9C20.1828 9 20.5512 9.03276 20.8803 9.09828C21.214 9.16379 21.5616 9.25739 21.9231 9.37907L21.3391 11.1551C21.2047 11.1176 21.0541 11.0849 20.8872 11.0568C20.725 11.0287 20.5489 11.0147 20.3589 11.0147C20.1503 11.0147 19.9974 11.0802 19.9001 11.2112C19.8074 11.3376 19.761 11.5458 19.761 11.836V12.0466H21.4364V14.1034Z" fill="#F52858"/>
<path d="M41.3983 17.537C41.6977 17.537 41.9718 17.5077 42.2203 17.4493C42.4689 17.3908 42.7288 17.3164 43 17.2261V19.4978C42.6384 19.6466 42.2542 19.7662 41.8475 19.8565C41.4463 19.9522 40.9322 20 40.3051 20C39.6836 20 39.1356 19.9097 38.661 19.729C38.1864 19.543 37.8164 19.2242 37.5508 18.7725C37.291 18.3155 37.161 17.6804 37.161 16.8674V13.1449H36V11.8775L37.4746 10.8971L38.3305 9H40.5V10.8094H42.8559V13.1449H40.5V16.6601C40.5 16.9524 40.5791 17.1729 40.7373 17.3217C40.8955 17.4652 41.1158 17.537 41.3983 17.537Z" fill="#F52858"/>
<path d="M60.7012 10.174H63.4543V17.4469L63.4615 17.7877C63.4615 18.2711 63.358 18.7304 63.1508 19.1655C62.9485 19.6054 62.6763 19.9607 62.3343 20.2314C61.9971 20.5021 61.5659 20.6979 61.0409 20.8187C60.5206 20.9396 59.9233 21 59.2488 21C57.7073 21 56.6475 20.768 56.0694 20.3039C55.4962 19.8398 55.2096 19.2186 55.2096 18.4403C55.2096 18.3437 55.2144 18.2131 55.224 18.0488L58.0782 18.3751C58.1505 18.641 58.2613 18.8247 58.4106 18.9262C58.6274 19.076 58.8996 19.151 59.2272 19.151C59.6511 19.151 59.9666 19.0374 60.1737 18.8102C60.3857 18.5829 60.4917 18.1866 60.4917 17.621V16.4535C60.2027 16.7967 59.9136 17.0457 59.6246 17.2004C59.1718 17.4421 58.6828 17.563 58.1577 17.563C57.1316 17.563 56.3031 17.1134 55.672 16.2142C55.224 15.5761 55 14.7326 55 13.6836C55 12.4847 55.289 11.5711 55.8671 10.9426C56.4452 10.3142 57.2015 10 58.136 10C58.7334 10 59.2247 10.1015 59.6101 10.3045C60.0003 10.5076 60.364 10.8436 60.7012 11.3125V10.174ZM57.9337 13.9084C57.9337 14.4643 58.0517 14.8776 58.2878 15.1483C58.5238 15.4142 58.8345 15.5471 59.2199 15.5471C59.586 15.5471 59.8919 15.4094 60.1376 15.1338C60.3881 14.8534 60.5134 14.4329 60.5134 13.8721C60.5134 13.3114 60.3833 12.8835 60.1232 12.5887C59.863 12.2889 59.5451 12.1391 59.1693 12.1391C58.7936 12.1391 58.4925 12.2769 58.2661 12.5524C58.0445 12.8231 57.9337 13.2751 57.9337 13.9084Z" fill="#F52858"/>
</svg>
