<svg width="80" height="80" viewBox="0 0 80 80" fill="none" xmlns="http://www.w3.org/2000/svg">
<path d="M39.3961 50.3017L39.3809 72.1723C39.3765 77.3175 48.7012 77.2458 48.6513 72.0963L48.4818 58.4917L48.2688 33.3438" stroke="#F52858" stroke-width="4" stroke-linecap="round" stroke-linejoin="round"/>
<path d="M48.5123 47.7527C49.7765 51.3841 51.6727 51.8402 53.0085 51.0105C55.2088 49.6423 54.442 46.7754 54.3508 44.5123L53.6667 27.385C53.4386 21.6839 26.5639 22.1074 25.6951 27.3285C24.9827 30.5625 24.885 37.9424 24.8047 43.5133C24.7656 46.2303 23.8401 51.7946 27.6347 51.3624C28.7294 51.2842 29.9241 50.296 30.8081 47.7549" stroke="#F52858" stroke-width="4" stroke-linecap="round" stroke-linejoin="round"/>
<path d="M31.0487 33.3438L30.8357 58.4917L30.6662 72.0963C30.6163 77.2458 39.385 77.3218 39.3828 72.1723" stroke="#F52858" stroke-width="4" stroke-linecap="round" stroke-linejoin="round"/>
<path d="M39.4551 4C43.0955 4 46.0472 7.22522 46.0472 11.2062C46.0472 13.895 44.7004 16.2384 42.7022 17.4764C41.7226 18.1062 40.5823 18.4689 39.3616 18.4689C35.7212 18.4689 32.7695 15.2437 32.7695 11.2627C32.7695 8.57394 34.1161 6.2305 36.1122 4.99254C37.0918 4.36053 38.2343 4 39.4528 4H39.4551Z" stroke="#F52858" stroke-width="4" stroke-linecap="round" stroke-linejoin="round"/>
<path d="M17.1946 54.748L17.1816 72.5704C17.1795 77.1834 25.5374 77.1182 25.4918 72.5009L25.3397 60.4905L25.3094 58.3946" stroke="white" stroke-width="4" stroke-linecap="round" stroke-linejoin="round"/>
<path d="M18.1862 29.0962C11.8765 29.0679 5.31269 30.3385 4.91304 32.7427C4.27446 35.64 4.18743 39.6992 4.11358 44.6923C4.07883 47.1291 3.24926 52.1157 6.65067 51.727C7.63243 51.6575 8.70104 50.7735 9.49383 48.4931" stroke="white" stroke-width="4" stroke-linecap="round" stroke-linejoin="round"/>
<path d="M9.71449 37.9492L9.52338 60.491L9.37129 72.5014C9.32568 77.1188 17.1864 77.1861 17.1843 72.5709" stroke="white" stroke-width="4" stroke-linecap="round" stroke-linejoin="round"/>
<path d="M17.2481 11.459C20.5105 11.459 23.1582 14.3497 23.1582 17.9181C23.1582 20.3267 21.9506 22.4291 20.1609 23.5389C19.2834 24.1036 18.2603 24.4293 17.1678 24.4293C13.9054 24.4293 11.2598 21.5386 11.2598 17.9702C11.2598 15.5616 12.4674 13.4593 14.255 12.3494C15.1325 11.7848 16.1577 11.459 17.2503 11.459H17.2481Z" stroke="white" stroke-width="4" stroke-linecap="round" stroke-linejoin="round"/>
<path d="M61.6418 54.7486L61.6289 72.5709C61.6267 77.1839 69.9847 77.1188 69.9391 72.5014L69.787 60.491L69.5959 37.9492" stroke="white" stroke-width="4" stroke-linecap="round" stroke-linejoin="round"/>
<path d="M69.8129 47.9614C70.9445 51.217 72.6452 51.6275 73.842 50.8804C75.8142 49.6533 75.1474 47.0818 75.0453 45.0555L74.4306 32.7931C74.2894 29.9502 66.7915 28.8056 60.0234 29.1574" stroke="white" stroke-width="4" stroke-linecap="round" stroke-linejoin="round"/>
<path d="M54.0404 58.8262L53.9687 60.4942L53.8166 72.5046C53.771 77.1219 61.6318 77.1893 61.6296 72.5741" stroke="white" stroke-width="4" stroke-linecap="round" stroke-linejoin="round"/>
<path d="M61.6954 11.459C64.9578 11.459 67.6055 14.3497 67.6055 17.9181C67.6055 20.3267 66.3979 22.4291 64.6081 23.5389C63.7306 24.1036 62.7076 24.4293 61.615 24.4293C58.3526 24.4293 55.707 21.5386 55.707 17.9702C55.707 15.5616 56.9147 13.4593 58.7023 12.3494C59.5798 11.7848 60.605 11.459 61.6975 11.459H61.6954Z" stroke="white" stroke-width="4" stroke-linecap="round" stroke-linejoin="round"/>
</svg>
