<svg width="80" height="80" viewBox="0 0 80 80" fill="none" xmlns="http://www.w3.org/2000/svg">
<path fill-rule="evenodd" clip-rule="evenodd" d="M11.0201 67.418C9.50365 67.418 8.27148 66.1859 8.27148 64.6695C8.27148 63.153 9.50365 61.9209 11.0201 61.9209H21.056V67.418H11.0201ZM30.2496 61.9314H68.9823C70.4987 61.9314 71.7308 63.1635 71.7308 64.68C71.7308 66.1964 70.4987 67.4286 68.9823 67.4286H30.2496V61.9314Z" fill="white"/>
<path fill-rule="evenodd" clip-rule="evenodd" d="M10.1395 8H69.871C71.5559 8 73.0829 8.69505 74.1992 9.80079V9.81132C75.3155 10.9276 76 12.4651 76 14.1395V53.6305C76 55.326 75.3049 56.8635 74.1992 57.9692V57.9587C73.0829 59.075 71.5454 59.77 69.8605 59.77C57.8763 59.77 45.039 59.77 33.0549 59.77C31.5384 59.77 30.3063 58.5379 30.3063 57.0215C30.3063 55.505 31.5384 54.2729 33.0549 54.2729C45.039 54.2729 57.8763 54.2729 69.8605 54.2729C70.0395 54.2729 70.208 54.1992 70.3133 54.0939V54.0833C70.4291 53.9675 70.5028 53.799 70.5028 53.62V14.129C70.5028 13.95 70.4291 13.7815 70.3238 13.6656L70.3133 13.6551C70.1974 13.5393 70.0395 13.4761 69.8605 13.4761H10.129C9.94998 13.4761 9.79202 13.5498 9.67618 13.6656H9.66564C9.5498 13.7815 9.48664 13.9394 9.48664 14.129V53.62C9.48664 53.799 9.56035 53.957 9.68673 54.0833C9.80257 54.1992 9.97105 54.2729 10.1395 54.2729C12.351 54.2729 16.2791 54.2729 18.4906 54.2729C20.007 54.2729 21.2392 55.505 21.2392 57.0215C21.2392 58.5379 20.007 59.77 18.4906 59.77C16.2791 59.77 12.351 59.77 10.1395 59.77C8.44407 59.77 6.90656 59.075 5.80081 57.9692C4.69506 56.853 4 55.3154 4 53.6305V14.1395C4 12.4546 4.69507 10.9171 5.81135 9.80079L5.80081 9.79027C6.90656 8.68452 8.44407 8 10.1395 8Z" fill="#F52858"/>
<path fill-rule="evenodd" clip-rule="evenodd" d="M22.9004 61.9185C22.9004 60.402 24.1325 59.1699 25.6489 59.1699C27.1654 59.1699 28.3976 60.402 28.3976 61.9185V67.4156C28.3976 68.9321 27.1654 70.1642 25.6489 70.1642C24.1325 70.1642 22.9004 68.9321 22.9004 67.4156V61.9185Z" fill="white"/>
<path fill-rule="evenodd" clip-rule="evenodd" d="M34.8639 22.3961L48.3857 31.6212C49.6389 32.4742 49.9548 34.1802 49.1018 35.4334C48.8911 35.7388 48.6384 35.9915 48.3436 36.1811L34.706 45.4799C33.4528 46.3329 31.7574 46.0064 30.8938 44.7638C30.5674 44.2899 30.4199 43.7528 30.4199 43.2157V24.5655C30.4199 23.049 31.652 21.8169 33.1685 21.8169C33.8003 21.8169 34.39 22.038 34.8639 22.3961ZM41.9723 33.8853L35.9066 29.7467V38.024L41.9723 33.8853Z" fill="white"/>
</svg>
