<svg width="80" height="80" viewBox="0 0 80 80" fill="none" xmlns="http://www.w3.org/2000/svg">
<path d="M76.0301 69.0427L69.0701 75.9999L51.2051 58.1363L58.2763 51.2925L76.0301 69.0427Z" stroke="white" stroke-width="4" stroke-linecap="round" stroke-linejoin="round"/>
<path d="M33.6004 4C49.9485 4 63.2007 17.2512 63.2007 33.598C63.2007 49.9448 49.9485 63.1959 33.6004 63.1959C17.2523 63.1959 4 49.9448 4 33.598C4 17.2512 17.2523 4 33.6004 4Z" stroke="white" stroke-width="4" stroke-linecap="round" stroke-linejoin="round"/>
<path d="M33.3008 9.81689C46.5637 9.81689 57.3149 20.5671 57.3149 33.829" stroke="white" stroke-width="4" stroke-linecap="round" stroke-linejoin="round"/>
<path d="M32.8223 20.8301V25.5238" stroke="#F52858" stroke-width="4" stroke-linecap="round" stroke-linejoin="round"/>
<path d="M32.8223 45.9976V50.6913" stroke="#F52858" stroke-width="4" stroke-linecap="round" stroke-linejoin="round"/>
<path d="M39.6252 27.9717C37.4621 27.2528 35.5131 26.5768 33.5554 26.3564C23.0097 25.1712 21.6574 35.7953 32.8814 35.761C43.7908 35.7268 42.7639 46.3594 32.1925 45.1635C30.237 44.9432 28.2857 44.2628 26.1376 43.5504" stroke="#F52858" stroke-width="4" stroke-linecap="round" stroke-linejoin="round"/>
</svg>
