<svg width="80" height="80" viewBox="0 0 80 80" fill="none" xmlns="http://www.w3.org/2000/svg">
<g clip-path="url(#clip0_1530_2607)">
<path d="M73.8332 38.9817H73.2589C70.9004 28.4399 61.4867 20.5234 50.2476 20.5234H43.0694V17.8982C46.638 16.6266 49.2221 13.2426 49.2221 9.24331C49.2221 4.15702 45.0793 0.0141602 39.993 0.0141602C34.9067 0.0141602 30.7638 4.15702 30.7638 9.24331C30.7638 13.2426 33.348 16.6266 36.9166 17.8982V20.5234H29.7384C18.4993 20.5234 9.08559 28.4399 6.72703 38.9817H6.15277C2.76875 38.9817 0 41.7504 0 45.1345V51.2872C0 54.6712 2.76875 57.44 6.15277 57.44H7.28078C9.70086 64.9874 15.8126 70.853 23.4831 72.986C22.9088 74.196 22.5601 75.5086 22.5601 76.9238C22.5601 78.626 23.9343 80.0001 25.6365 80.0001H54.3494C56.0517 80.0001 57.4258 78.626 57.4258 76.9238C57.4258 75.5086 57.0772 74.1755 56.5029 72.986C64.1734 70.8735 70.2851 64.9874 72.7052 57.44H73.8332C77.2172 57.44 79.986 54.6712 79.986 51.2872V45.1345C79.986 41.7504 77.2172 38.9817 73.8332 38.9817ZM39.993 6.16693C41.6953 6.16693 43.0694 7.54105 43.0694 9.24331C43.0694 10.9456 41.6953 12.3197 39.993 12.3197C38.2907 12.3197 36.9166 10.9456 36.9166 9.24331C36.9166 7.54105 38.2907 6.16693 39.993 6.16693ZM50.2476 67.6946H29.7384C20.1195 67.6946 12.3055 59.8806 12.3055 50.2618V44.109C12.3055 34.4902 20.1195 26.6762 29.7384 26.6762H50.2476C59.8664 26.6762 67.6804 34.4902 67.6804 44.109V50.2618C67.6804 59.8806 59.8664 67.6946 50.2476 67.6946Z" fill="white"/>
<path d="M28.7133 34.8799C25.3293 34.8799 22.5605 37.6486 22.5605 41.0327V47.1854C22.5605 50.5694 25.3293 53.3382 28.7133 53.3382C32.0973 53.3382 34.8661 50.5694 34.8661 47.1854V41.0327C34.8661 37.6486 32.0973 34.8799 28.7133 34.8799Z" fill="#F52858"/>
<path d="M51.2735 34.8799C47.8894 34.8799 45.1207 37.6486 45.1207 41.0327V47.1854C45.1207 50.5694 47.8894 53.3382 51.2735 53.3382C54.6575 53.3382 57.4262 50.5694 57.4262 47.1854V41.0327C57.4262 37.6486 54.6575 34.8799 51.2735 34.8799Z" fill="#F52858"/>
<path d="M18.5192 6.0028L24.672 8.05373C25.0001 8.15627 25.3283 8.2178 25.6359 8.2178C26.928 8.2178 28.1175 7.39743 28.5482 6.10535C29.0815 4.48512 28.2201 2.74184 26.5999 2.2086L20.4471 0.157675C18.8474 -0.375564 17.1041 0.485822 16.5503 2.10605C15.9966 3.72628 16.8785 5.46956 18.4987 6.0028H18.5192Z" fill="#F52858"/>
<path d="M19.4832 18.4724C19.8113 18.4724 20.1395 18.4314 20.4471 18.3083L26.5999 16.2574C28.2201 15.7242 29.0815 13.9809 28.5482 12.3607C28.015 10.7404 26.2717 9.87905 24.6515 10.4123L18.4987 12.4632C16.8785 12.9964 16.0171 14.7397 16.5503 16.36C16.981 17.652 18.1706 18.4724 19.4627 18.4724H19.4832Z" fill="#F52858"/>
<path d="M54.3503 8.2178C54.6784 8.2178 55.0066 8.17678 55.3142 8.05373L61.467 6.0028C63.0872 5.46956 63.9486 3.72628 63.4153 2.10605C62.8821 0.485822 61.1388 -0.375564 59.5186 0.157675L53.3658 2.2086C51.7456 2.74184 50.8842 4.48512 51.4174 6.10535C51.8481 7.39743 53.0377 8.2178 54.3298 8.2178H54.3503Z" fill="#F52858"/>
<path d="M53.3863 16.2574L59.5391 18.3083C59.8672 18.4109 60.1954 18.4724 60.503 18.4724C61.7951 18.4724 62.9846 17.652 63.4153 16.36C63.9486 14.7397 63.0872 12.9964 61.467 12.4632L55.3142 10.4123C53.7145 9.87905 51.9507 10.7404 51.4174 12.3607C50.8842 13.9809 51.7456 15.7242 53.3658 16.2574H53.3863Z" fill="#F52858"/>
</g>
<defs>
<clipPath id="clip0_1530_2607">
<rect width="80" height="80" fill="white"/>
</clipPath>
</defs>
</svg>
