<svg width="80" height="80" viewBox="0 0 80 80" fill="none" xmlns="http://www.w3.org/2000/svg">
<path d="M77.72 23.3607H4M77.72 8H4V72.9541H77.72V8Z" stroke="white" stroke-width="4" stroke-linecap="round" stroke-linejoin="round"/>
<path fill-rule="evenodd" clip-rule="evenodd" d="M68.8027 13.1377C67.1451 13.1377 65.8027 14.4806 65.8027 16.1377C65.8027 17.7947 67.1471 19.1377 68.8027 19.1377C70.4583 19.1377 71.8027 17.7947 71.8027 16.1377C71.8027 14.4806 70.4583 13.1377 68.8027 13.1377Z" fill="#F52858"/>
<path fill-rule="evenodd" clip-rule="evenodd" d="M60.2559 13.1377C58.6003 13.1377 57.2559 14.4806 57.2559 16.1377C57.2559 17.7947 58.6003 19.1377 60.2559 19.1377C61.9115 19.1377 63.2559 17.7947 63.2559 16.1377C63.2559 14.4806 61.9135 13.1377 60.2559 13.1377Z" fill="#F52858"/>
<path d="M37.7078 67.2497H42.3278C44.0878 67.2497 45.2244 66.003 44.8944 64.4813L44.1428 61.1631H35.8928L35.1411 64.4813C34.8111 65.9113 36.0578 67.2497 37.7078 67.2497Z" stroke="#F52858" stroke-width="4" stroke-linecap="round" stroke-linejoin="round"/>
<path d="M44.1437 61.1453L47.3154 58.3219C49.0937 56.7453 49.167 55.6452 47.7553 53.8668L42.1637 46.772C40.9903 45.287 39.0654 45.287 37.892 46.772L32.3004 53.8668C30.8887 55.6452 30.8887 56.8003 32.7403 58.3219L35.912 61.1453" stroke="#F52858" stroke-width="4" stroke-linecap="round" stroke-linejoin="round"/>
<path d="M40.0195 46.3867V51.0251" stroke="#F52858" stroke-width="4" stroke-linecap="round" stroke-linejoin="round"/>
<path d="M56.0046 51.9786H54.1712C53.1629 51.9786 52.3379 51.1536 52.3379 50.1453V48.312C52.3379 47.3036 53.1629 46.4785 54.1712 46.4785H56.0046C57.0129 46.4785 57.8379 47.3036 57.8379 48.312V50.1453C57.8379 51.1536 57.0129 51.9786 56.0046 51.9786Z" stroke="white" stroke-width="4" stroke-linecap="round" stroke-linejoin="round"/>
<path d="M55.1254 46.479C55.1254 39.2923 49.7354 33.389 42.7871 32.5273" stroke="white" stroke-width="4" stroke-linecap="round" stroke-linejoin="round"/>
<path d="M40.9538 35.167H39.1204C38.1121 35.167 37.2871 34.342 37.2871 33.3337V31.5003C37.2871 30.492 38.1121 29.667 39.1204 29.667H40.9538C41.9621 29.667 42.7871 30.492 42.7871 31.5003V33.3337C42.7871 34.342 41.9621 35.167 40.9538 35.167Z" stroke="#F52858" stroke-width="4" stroke-linecap="round" stroke-linejoin="round"/>
<path d="M23.9954 51.9786H25.8288C26.8371 51.9786 27.6621 51.1536 27.6621 50.1453V48.312C27.6621 47.3036 26.8371 46.4785 25.8288 46.4785H23.9954C22.9871 46.4785 22.1621 47.3036 22.1621 48.312V50.1453C22.1621 51.1536 22.9871 51.9786 23.9954 51.9786Z" stroke="#F52858" stroke-width="4" stroke-linecap="round" stroke-linejoin="round"/>
<path d="M37.2867 32.5273C30.3017 33.3523 24.875 39.274 24.875 46.479" stroke="#F52858" stroke-width="4" stroke-linecap="round" stroke-linejoin="round"/>
</svg>
