<svg width="80" height="80" viewBox="0 0 80 80" fill="none" xmlns="http://www.w3.org/2000/svg">
<path fill-rule="evenodd" clip-rule="evenodd" d="M74.2589 9.86391C73.1211 8.71522 71.5389 8 69.7942 8H8.32864C6.59478 8 5.02344 8.70441 3.87476 9.85309L3.86391 9.86391H3.85309C2.70441 11.0126 2 12.5948 2 14.3178V57.5995C2 59.3442 2.70441 60.9263 3.85309 62.0642L3.86391 62.0533C5.0126 63.202 6.59478 63.9172 8.32864 63.9172C20.6608 63.9172 53.8535 63.9389 66.1856 63.9389V58.2822C53.8535 58.2822 20.6499 58.2605 8.32864 58.2605C8.14442 58.2605 7.97103 58.1847 7.85183 58.0763V58.0654C7.73262 57.9462 7.65674 57.7729 7.65674 57.5886V14.3286C7.65674 14.1444 7.73261 13.971 7.84098 13.8626L7.85183 13.8518C7.97103 13.7326 8.13358 13.6676 8.32864 13.6676H69.7942C69.9784 13.6676 70.141 13.7434 70.2602 13.8626H70.271C70.3902 13.9818 70.4553 14.1444 70.4553 14.3286V57.6103C70.4553 57.7945 70.3794 57.9571 70.2602 58.0871C70.141 58.2063 69.9676 58.2822 69.7942 58.2822C67.5077 58.2822 68.4613 58.2822 66.1856 58.2822C66.1856 58.2822 66.1856 62.3785 66.1856 63.9389C68.4613 63.9389 67.5185 63.9389 69.7942 63.9389C71.5281 63.9389 73.1211 63.2237 74.2589 62.0858C75.4076 60.9372 76.112 59.355 76.112 57.6211V14.3286C76.1228 12.5948 75.4076 11.0126 74.2589 9.86391Z" fill="#F52858"/>
<path fill-rule="evenodd" clip-rule="evenodd" d="M48.0774 66.2031C40.3075 66.2031 37.815 66.2031 30.0452 66.2031C28.4847 66.2031 27.2168 67.471 27.2168 69.0315C27.2168 70.592 28.4847 71.8599 30.0452 71.8599C37.815 71.8599 40.3075 71.8599 48.0774 71.8599C49.6379 71.8599 50.9057 70.592 50.9057 69.0315C50.9057 67.471 49.6379 66.2031 48.0774 66.2031Z" fill="white"/>
<path d="M39.4641 26L42.1814 32.4395L48.9269 32.8745L43.6426 37.4505L45.313 44L39.3275 40.3875L33.6151 44L35.2011 37.1914L30 32.8745L36.9653 32.2799L39.4641 26Z" stroke="white" stroke-width="2.5" stroke-linecap="round" stroke-linejoin="round"/>
</svg>
