<svg width="80" height="80" viewBox="0 0 80 80" fill="none" xmlns="http://www.w3.org/2000/svg">
<path d="M51.8973 13.5774H11.8504C7.533 13.5774 4 17.1104 4 21.4278V53.7284C4 58.0458 7.53508 61.5788 11.8504 61.5788H19.6988V76L34.7442 61.5788H57.9771C62.2924 61.5788 65.8275 58.0437 65.8275 53.7284V37.4803" stroke="white" stroke-width="4" stroke-linecap="round" stroke-linejoin="round"/>
<path d="M13.7188 34.1846H29.3925M13.7188 40.8178H26.4692M13.7188 47.451H24.6507" stroke="#F52858" stroke-width="4" stroke-linecap="round" stroke-linejoin="round"/>
<path d="M62.2137 31.773L74.4544 19.5781L63.9886 9.11224M31.1055 48.1625L34.6281 44.6399M69.1778 4L75.4802 10.3024L42.7739 43.0087C36.253 49.5295 29.9486 43.2271 36.4715 36.7063L69.1778 4Z" stroke="#F52858" stroke-width="4" stroke-linecap="round" stroke-linejoin="round"/>
</svg>
