<svg width="80" height="80" viewBox="0 0 80 80" fill="none" xmlns="http://www.w3.org/2000/svg">
<path d="M4.10156 65.8962H74.871" stroke="white" stroke-width="4" stroke-linecap="round" stroke-linejoin="round"/>
<path d="M11.541 65.8973V39.2748" stroke="white" stroke-width="4" stroke-linecap="round" stroke-linejoin="round"/>
<path d="M67.4297 65.8973V39.2748" stroke="white" stroke-width="4" stroke-linecap="round" stroke-linejoin="round"/>
<path d="M12.0394 5.6167H66.9406L74.8565 23.6067C74.9375 24.048 74.98 24.5035 74.98 24.9671C74.98 29.2207 71.4431 32.6685 67.0803 32.6685C64.1164 32.6685 61.5351 31.0772 60.1827 28.7226C58.8303 31.0772 56.2491 32.6685 53.2851 32.6685C50.3212 32.6685 47.74 31.0772 46.3876 28.7226C45.0352 31.0772 42.4539 32.6685 39.49 32.6685C36.5261 32.6685 33.9448 31.0772 32.5924 28.7226C31.24 31.0772 28.6588 32.6685 25.6949 32.6685C22.7309 32.6685 20.1497 31.0772 18.7973 28.7226C17.4449 31.0772 14.8636 32.6685 11.8997 32.6685C7.53685 32.6685 4 29.2207 4 24.9671C4 24.5035 4.04049 24.048 4.1235 23.6067L12.0394 5.6167Z" stroke="white" stroke-width="4" stroke-linecap="round" stroke-linejoin="round"/>
<path d="M18.6758 28.1214L22.1843 6.55414" stroke="white" stroke-width="4" stroke-linecap="round" stroke-linejoin="round"/>
<path d="M32.4219 28.1214C32.8126 20.9323 33.2013 13.7432 33.5921 6.55414" stroke="white" stroke-width="4" stroke-linecap="round" stroke-linejoin="round"/>
<path d="M46.1663 28.1214C45.7755 20.9323 45.3868 13.7432 44.9961 6.55414" stroke="white" stroke-width="4" stroke-linecap="round" stroke-linejoin="round"/>
<path d="M59.9128 28.1214L56.4043 6.55414" stroke="white" stroke-width="4" stroke-linecap="round" stroke-linejoin="round"/>
<path d="M40.8772 50.5295V47.5381H48.6039V54.6108C47.8531 55.3375 46.7631 55.9794 45.334 56.5365C43.913 57.0855 42.4718 57.36 41.0105 57.36C39.1535 57.36 37.5346 56.9725 36.154 56.1974C34.7734 55.4142 33.7359 54.3 33.0415 52.8548C32.3472 51.4015 32 49.823 32 48.1194C32 46.2705 32.3875 44.6275 33.1626 43.1903C33.9377 41.7532 35.0721 40.6511 36.5658 39.8841C37.7042 39.2947 39.1212 39 40.8167 39C43.0208 39 44.7406 39.4642 45.9759 40.3927C47.2193 41.3132 48.0186 42.5888 48.3738 44.2198L44.8132 44.8859C44.563 44.0139 44.0906 43.3276 43.3963 42.827C42.71 42.3184 41.8501 42.064 40.8167 42.064C39.2503 42.064 38.0029 42.5606 37.0744 43.5537C36.154 44.5468 35.6938 46.0202 35.6938 47.9741C35.6938 50.0814 36.1621 51.6639 37.0987 52.7216C38.0352 53.7712 39.2625 54.296 40.7803 54.296C41.5312 54.296 42.2821 54.1506 43.033 53.86C43.7919 53.5612 44.4418 53.202 44.9828 52.7821V50.5295H40.8772Z" fill="#F52858"/>
</svg>
