<svg width="80" height="80" viewBox="0 0 80 80" fill="none" xmlns="http://www.w3.org/2000/svg">
<path d="M48.1655 51.6521V69.976C48.1655 73.0967 45.5915 75.6708 42.4708 75.6708H9.69477C6.5633 75.6708 4 73.1096 4 69.976V9.69474C4 6.56327 6.56115 4 9.69477 4H21.3727" stroke="white" stroke-width="4" stroke-linecap="round" stroke-linejoin="round"/>
<path d="M22.498 69.2935H29.6692" stroke="white" stroke-width="4" stroke-linecap="round" stroke-linejoin="round"/>
<path d="M4.93359 63.5925H46.8909" stroke="white" stroke-width="4" stroke-linecap="round" stroke-linejoin="round"/>
<path d="M33.6081 4.00198H68.4739C73.5919 4.00198 76.0002 6.6664 76.0002 11.7822V34.4299C76.0002 39.5457 73.5897 42.2101 68.4739 42.2101H50.9571L38.5259 53.6255V42.2101H33.6081C28.4923 42.2101 26.084 39.5479 26.084 34.4299V11.7822C26.084 6.66425 28.4923 4.00198 33.6081 4.00198Z" stroke="white" stroke-width="4" stroke-linecap="round" stroke-linejoin="round"/>
<path d="M44.9515 20.8776L52.4705 13.9411L55.0717 8.68201C55.6367 7.54043 57.8675 7.93113 58.3207 9.12063C58.7695 10.3014 58.2669 13.4327 57.6468 14.554L55.2649 18.8501L64.0125 18.3098C65.2863 18.2314 66.499 19.1726 66.499 20.4477C66.499 21.5661 65.8324 22.561 64.8114 22.8543C64.6676 22.895 64.0285 22.9473 63.8717 22.9342L63.6509 22.9153L64.4889 23.4469C64.8912 23.7011 65.1672 24.1397 65.1977 24.5464C65.2732 25.5427 64.6981 26.4446 63.8339 26.8353C63.693 26.8992 62.9509 26.8789 62.7969 26.9137C62.9189 26.9893 63.6277 27.1447 63.7337 27.2405C64.1607 27.6254 64.4468 28.1686 64.4933 28.7844C64.5688 29.7822 63.9922 30.6856 63.1266 31.0748C62.9872 31.1372 61.9313 31.1518 61.7773 31.1866C61.969 31.3057 63.0511 31.4858 63.2021 31.6528C63.5318 32.0203 63.7482 32.4952 63.7874 33.0225C63.8833 34.2947 62.9233 35.4813 61.6495 35.5089L52.27 35.7137C48.854 35.7878 45.8709 33.8866 44.1367 31.2854" stroke="#F52858" stroke-width="4" stroke-linecap="round" stroke-linejoin="round"/>
<path d="M37.7879 17.9867H42.0782C43.0615 17.9867 43.8661 18.7914 43.8661 19.7746V33.9266C43.8661 34.9099 43.0615 35.7145 42.0782 35.7145H37.7879C36.8046 35.7145 36 34.9099 36 33.9266V19.7746C36 18.7914 36.8046 17.9867 37.7879 17.9867Z" stroke="#F52858" stroke-width="4" stroke-linecap="round" stroke-linejoin="round"/>
</svg>
