<svg width="80" height="80" viewBox="0 0 80 80" fill="none" xmlns="http://www.w3.org/2000/svg">
<path d="M40.3232 4C43.7768 4 46.5772 6.95473 46.5772 10.5976C46.5772 13.0599 45.2995 15.2049 43.4037 16.3402C42.4743 16.9172 41.3925 17.2489 40.2344 17.2489C36.7808 17.2489 33.9805 14.2942 33.9805 10.6513C33.9805 8.18901 35.258 6.04408 37.1517 4.91082C38.0811 4.33388 39.1649 4.00211 40.321 4.00211L40.3232 4Z" stroke="#F52858" stroke-width="4" stroke-linecap="round" stroke-linejoin="round"/>
<path d="M54.2224 34.6692L53.6907 25.4156C53.4743 20.1943 27.9782 20.5838 27.1539 25.3641C26.5604 27.9623 26.4162 29.9095 26.3379 34.6712" stroke="#F52858" stroke-width="4" stroke-linecap="round" stroke-linejoin="round"/>
<path d="M34.0579 30.8699L33.9941 36.5981" stroke="#F52858" stroke-width="4" stroke-linecap="round" stroke-linejoin="round"/>
<path d="M46.568 36.5981L46.502 30.8699" stroke="#F52858" stroke-width="4" stroke-linecap="round" stroke-linejoin="round"/>
<path d="M17.9853 41.46C21.4389 41.46 24.2393 44.4147 24.2393 48.0577C24.2393 50.5199 22.9618 52.6649 21.066 53.8002C20.1366 54.3772 19.0548 54.7089 17.8968 54.7089C14.4431 54.7089 11.6426 51.7542 11.6426 48.1113C11.6426 45.649 12.9202 43.504 14.8118 42.3707C15.7412 41.7938 16.825 41.4621 17.9811 41.4621L17.9853 41.46Z" stroke="white" stroke-width="4" stroke-linecap="round" stroke-linejoin="round"/>
<path d="M31.8847 74.06L31.353 62.8737C31.1367 57.6524 5.64026 58.0418 4.81601 62.8221C4.22254 65.4204 4.0783 69.2982 4 74.06" stroke="white" stroke-width="4" stroke-linecap="round" stroke-linejoin="round"/>
<path d="M11.7202 68.3318L11.6562 74.0599" stroke="white" stroke-width="4" stroke-linecap="round" stroke-linejoin="round"/>
<path d="M24.2301 74.0599L24.1641 68.3318" stroke="white" stroke-width="4" stroke-linecap="round" stroke-linejoin="round"/>
<path d="M62.6611 41.46C66.1147 41.46 68.9152 44.4147 68.9152 48.0577C68.9152 50.5199 67.6376 52.6649 65.7418 53.8002C64.8124 54.3772 63.7306 54.7089 62.5725 54.7089C59.1189 54.7089 56.3184 51.7542 56.3184 48.1113C56.3184 45.649 57.5961 43.504 59.4878 42.3707C60.4172 41.7938 61.501 41.4621 62.657 41.4621L62.6611 41.46Z" stroke="white" stroke-width="4" stroke-linecap="round" stroke-linejoin="round"/>
<path d="M76.5605 74.06L76.0288 62.8737C75.8124 57.6524 50.316 58.0418 49.4918 62.8221C48.8983 65.4204 48.7541 69.2982 48.6758 74.06" stroke="white" stroke-width="4" stroke-linecap="round" stroke-linejoin="round"/>
<path d="M56.3941 68.3318L56.3301 74.0599" stroke="white" stroke-width="4" stroke-linecap="round" stroke-linejoin="round"/>
<path d="M68.9058 74.0599L68.8398 68.3318" stroke="white" stroke-width="4" stroke-linecap="round" stroke-linejoin="round"/>
<path d="M11.1094 31.8206V11.3828C11.1094 9.65608 12.5869 7.31543 14.3116 7.31543H20.269" stroke="white" stroke-width="4" stroke-linecap="round" stroke-linejoin="round"/>
<path d="M4 25.7737L11.1092 32.7793L18.2184 25.7737" stroke="white" stroke-width="4" stroke-linecap="round" stroke-linejoin="round"/>
<path d="M69.4507 31.8206V11.3828C69.4507 9.65608 67.9732 7.31543 66.2484 7.31543H60.2891" stroke="white" stroke-width="4" stroke-linecap="round" stroke-linejoin="round"/>
<path d="M76.5602 25.7737L69.451 32.7793L62.3418 25.7737" stroke="white" stroke-width="4" stroke-linecap="round" stroke-linejoin="round"/>
</svg>
