<svg width="80" height="80" viewBox="0 0 80 80" fill="none" xmlns="http://www.w3.org/2000/svg">
<path d="M63.5164 35.384V49.3648C63.5164 55.4053 53.5216 60.2995 41.1914 60.2995C28.8611 60.2995 18.8691 55.4053 18.8691 49.3648V36.0202" stroke="white" stroke-width="4" stroke-linecap="round" stroke-linejoin="round"/>
<path d="M11.7225 55.4247C11.5878 65.0499 16.6282 70.0731 10.0319 76.1594L4 71.6892C8.26386 69.2392 11.5907 63.4739 11.7225 55.4247Z" stroke="#F52858" stroke-width="4" stroke-linecap="round" stroke-linejoin="round"/>
<path d="M12.3905 46.0465C12.4851 40.731 11.6541 35.2349 13.1842 31.8938M13.1842 31.8938L6.59933 28.9337C5.31272 28.3549 5.16658 26.2545 6.30418 25.7186L38.9479 10.3252C40.0855 9.78933 41.7246 9.9498 43.0312 10.5573L75.0847 25.4837C76.3914 26.0911 76.4745 28.1858 75.3798 28.6987L42.7361 44.0922C41.6214 44.6166 39.9537 44.4647 38.6528 43.8601L13.1842 31.8938ZM13.1842 31.8938L26.8183 29.0813L40.4523 26.2688" stroke="white" stroke-width="4" stroke-linecap="round" stroke-linejoin="round"/>
<path d="M12.153 47.2101C14.0127 47.2101 15.5229 48.7173 15.5229 50.5799C15.5229 52.4425 14.0156 53.9497 12.153 53.9497C10.2905 53.9497 8.7832 52.4425 8.7832 50.5799C8.7832 48.7173 10.2905 47.2101 12.153 47.2101Z" stroke="#F52858" stroke-width="4" stroke-linecap="round" stroke-linejoin="round"/>
<path d="M12.7234 47.1058C12.8205 41.6509 11.9677 36.0108 13.538 32.582L27.5295 29.6958L41.521 26.8096" stroke="#F52858" stroke-width="4" stroke-linecap="round" stroke-linejoin="round"/>
</svg>
