<svg width="80" height="80" viewBox="0 0 80 80" fill="none" xmlns="http://www.w3.org/2000/svg">
<path fill-rule="evenodd" clip-rule="evenodd" d="M42.0763 28.5404C44.5579 26.0588 47.8116 24.8125 51.0652 24.8125C54.3189 24.8125 57.5726 26.0588 60.0542 28.5404C62.5359 31.0221 63.7822 34.2757 63.7822 37.5294C63.7822 40.7831 62.5359 44.0368 60.0542 46.5184C57.5726 49 54.3189 50.2463 51.0652 50.2463C47.8116 50.2463 44.5579 49.011 42.0763 46.5184C39.5947 44.0368 38.3594 40.7831 38.3594 37.5294C38.3594 34.2757 39.5947 31.0221 42.0763 28.5404ZM46.1461 32.6103C44.7895 33.9669 44.1057 35.7537 44.1057 37.5294C44.1057 39.3051 44.7895 41.0919 46.1351 42.4485C47.4917 43.8052 49.2785 44.489 51.0542 44.489C52.8299 44.489 54.6167 43.8052 55.9733 42.4485C57.33 41.0919 58.0027 39.3051 58.0027 37.5294C58.0027 35.7426 57.3189 33.9669 55.9733 32.6103C54.6167 31.2537 52.8299 30.5699 51.0542 30.5699C49.2895 30.5699 47.5027 31.2537 46.1461 32.6103Z" fill="white"/>
<path fill-rule="evenodd" clip-rule="evenodd" d="M55.9824 47.4121C54.8574 46.2871 54.8574 44.4673 55.9824 43.3423C57.1074 42.2173 58.9273 42.2173 60.0523 43.3423L66.0743 49.3533C67.1993 50.4783 67.1993 52.2982 66.0743 53.4232C64.9493 54.5482 63.1294 54.5482 62.0044 53.4232L55.9824 47.4121Z" fill="white"/>
<path fill-rule="evenodd" clip-rule="evenodd" d="M37.7297 4H67.5311C69.6047 4 71.5017 4.84926 72.8694 6.21691C74.237 7.58455 75.0863 9.4706 75.0863 11.5552V68.4448C75.0863 70.5184 74.237 72.4154 72.8694 73.7831H72.8583C71.4907 75.1507 69.6047 76 67.5422 76H37.7407C35.6672 76 33.7811 75.1507 32.4135 73.7831L32.4024 73.772C31.0348 72.4044 30.1855 70.5184 30.1855 68.4448V11.5552C30.1855 9.48162 31.0348 7.59559 32.4024 6.22795V6.21691C33.7701 4.84926 35.6561 4 37.7297 4ZM67.5311 9.74633H37.7297C37.2333 9.74633 36.7922 9.94486 36.4613 10.2757H36.4502C36.1304 10.6066 35.9319 11.0478 35.9319 11.5441V68.4338C35.9319 68.9301 36.1304 69.3824 36.4502 69.7022C36.7811 70.0221 37.2333 70.2316 37.7297 70.2316H67.5311C68.0274 70.2316 68.4797 70.0331 68.7995 69.7022H68.7885C69.1083 69.3713 69.3179 68.9301 69.3179 68.4338V11.5441C69.3179 11.0478 69.1194 10.6066 68.7885 10.2757C68.4686 9.95588 68.0274 9.74633 67.5311 9.74633Z" fill="#F52858"/>
<path fill-rule="evenodd" clip-rule="evenodd" d="M47.6018 68.3012C46.8077 68.3012 46.168 67.6615 46.168 66.8674C46.168 66.0733 46.8077 65.4336 47.6018 65.4336H57.6716C58.4658 65.4336 59.1054 66.0733 59.1054 66.8674C59.1054 67.6615 58.4658 68.3012 57.6716 68.3012H47.6018Z" fill="white"/>
<path fill-rule="evenodd" clip-rule="evenodd" d="M27.8359 65.7204L25.8065 65.6101C25.4756 65.588 25.1667 65.4336 24.9241 65.202C24.6814 64.9593 24.505 64.6285 24.4719 64.2535C24.4057 63.5476 24.3285 62.7976 24.2513 62.0034L24.0528 60.0182C22.6741 59.6542 21.3396 59.1468 20.0932 58.5071L18.6263 59.8637C18.0418 60.4042 17.4792 60.9226 16.9609 61.3968C16.6851 61.6505 16.3322 61.7829 15.9903 61.8049C15.6594 61.827 15.3175 61.7277 15.0528 61.5292C14.4903 61.077 13.9168 60.6248 13.3543 60.1836C12.7918 59.7314 12.2182 59.2792 11.6557 58.827C11.391 58.6174 11.2366 58.3086 11.1704 57.9777C11.1153 57.6358 11.1594 57.2608 11.3469 56.941C11.6998 56.3233 12.0749 55.6726 12.4719 54.9777L13.4646 53.2351C12.5601 52.1542 11.766 50.974 11.1042 49.7167L9.13 49.9704C8.33589 50.0696 7.58588 50.1689 6.88 50.2571C6.51602 50.3013 6.14103 50.213 5.85427 50.0255C5.5675 49.849 5.34689 49.5733 5.24763 49.2535C5.0491 48.5586 4.85058 47.8637 4.64103 47.1689C4.4425 46.474 4.24396 45.7792 4.04543 45.0843C3.95719 44.7645 4.00131 44.4226 4.14469 44.1137C4.28807 43.8049 4.55279 43.5292 4.88367 43.3748C5.52338 43.077 6.21822 42.7571 6.93513 42.4262L8.75501 41.588C8.71089 41.0807 8.69984 40.5623 8.69984 40.0329C8.69984 39.1285 8.75499 38.224 8.87632 37.3527L7.1116 36.4152C6.40572 36.0402 5.74396 35.6873 5.11528 35.3564C4.79543 35.1799 4.54177 34.8932 4.40942 34.5733C4.27706 34.2645 4.255 33.9115 4.36529 33.5917C4.59691 32.9079 4.83955 32.224 5.0822 31.5402C5.32484 30.8564 5.55645 30.1726 5.7991 29.4887C5.90939 29.1799 6.14103 28.9152 6.43883 28.7498C6.73662 28.5843 7.11162 28.5071 7.47559 28.5733C8.17045 28.7057 8.9094 28.838 9.70352 28.9814L11.6668 29.3454C12.3947 28.1321 13.255 26.9961 14.2145 25.9593L13.3212 24.1726C12.9572 23.4557 12.6263 22.7829 12.3064 22.1432C12.141 21.8123 12.1079 21.4373 12.1851 21.0954C12.2623 20.7645 12.4388 20.4667 12.7146 20.2682C13.2991 19.849 13.8947 19.4299 14.4792 19.0108C15.0748 18.5917 15.6594 18.1726 16.255 17.7535C16.5307 17.5549 16.8616 17.4887 17.2035 17.5218C17.5454 17.5549 17.8874 17.7093 18.1521 17.9851C18.6484 18.4924 19.1668 19.0329 19.7293 19.6064L21.119 21.0402C22.3984 20.4777 23.755 20.0476 25.1557 19.7498L25.4646 17.7755C25.5859 16.9814 25.6962 16.2424 25.8065 15.5365C25.8616 15.1726 26.0491 14.8417 26.3138 14.6101C26.5675 14.3895 26.8874 14.2461 27.2182 14.2461H27.8359V15.4483V15.4704V15.4924V23.3123C26.5454 23.4887 24.7146 23.8196 22.641 24.5255L20.2256 25.5843L16.9939 22.2535C16.9278 22.1873 16.8616 22.1101 16.7844 22.0439C16.7513 22.066 16.7293 22.088 16.6962 22.1101C16.6631 22.1321 16.63 22.1542 16.6079 22.1762C16.6521 22.2645 16.6962 22.3527 16.7403 22.441L18.8138 26.588L17.016 28.5292C16.2329 29.3785 15.527 30.3049 14.9315 31.2976L13.5749 33.5586L9.0197 32.7204C8.92044 32.6983 8.82116 32.6873 8.73293 32.6652C8.7219 32.6983 8.71086 32.7424 8.6888 32.7755C8.67777 32.8086 8.66674 32.8417 8.65571 32.8858C8.74395 32.9299 8.83221 32.9741 8.92044 33.0292L13.0123 35.213L12.6704 37.827C12.5822 38.5549 12.527 39.2829 12.527 40.0218C12.527 40.441 12.5491 40.8711 12.5712 41.2902L12.7697 43.9262L8.56749 45.8785C8.47926 45.9226 8.39102 45.9667 8.29176 45.9998C8.30279 46.0329 8.31382 46.077 8.32485 46.1101C8.33588 46.1432 8.3469 46.1873 8.35793 46.2204C8.4572 46.2093 8.55645 46.1983 8.65571 46.1873L13.255 45.5917L14.4903 47.9189C15.0307 48.9336 15.6815 49.9042 16.4204 50.7865L18.1079 52.8159L15.8028 56.8417C15.7587 56.9299 15.7035 57.0182 15.6594 57.1064C15.6925 57.1284 15.7146 57.1505 15.7477 57.1726C15.7807 57.1946 15.8028 57.2167 15.8359 57.2388C15.9131 57.1726 15.9793 57.1064 16.0565 57.0402L19.4646 53.8968L21.8248 55.088C24.5601 56.1468 26.6116 56.4887 27.8579 56.6983V64.5182V64.5402V64.5623V65.7204H27.8359Z" fill="white"/>
<path fill-rule="evenodd" clip-rule="evenodd" d="M27.8349 49.8608C25.1106 49.8608 22.64 48.7578 20.8643 46.9711C19.0775 45.1843 17.9746 42.7137 17.9746 39.9894C17.9746 37.2762 19.0775 34.8056 20.8643 33.0189C22.6511 31.2321 25.1217 30.1292 27.8349 30.1292C27.8349 36.7027 27.8349 43.2872 27.8349 49.8608Z" fill="white"/>
</svg>
