<svg width="82" height="82" viewBox="0 0 82 82" fill="none" xmlns="http://www.w3.org/2000/svg">
<mask id="path-1-outside-1_1530_2546" maskUnits="userSpaceOnUse" x="2.10547" y="2.10522" width="78" height="78" fill="black">
<rect fill="white" x="2.10547" y="2.10522" width="78" height="78"/>
<path fill-rule="evenodd" clip-rule="evenodd" d="M41.0002 3.10522C51.4645 3.10522 60.9436 7.35225 67.7958 14.2044C74.6479 21.0565 78.8949 30.5357 78.8949 41C78.8949 51.4643 74.6479 60.9434 67.7958 67.7955C60.9436 74.6477 51.4645 78.8947 41.0002 78.8947C30.5359 78.8947 21.0568 74.6477 14.2046 67.7955C7.3525 60.9434 3.10547 51.4643 3.10547 41C3.10547 30.5357 7.3525 21.0565 14.2046 14.2044C21.0568 7.35225 30.5359 3.10522 41.0002 3.10522ZM41.0009 5.81164C50.7177 5.81164 59.5198 9.7553 65.8825 16.118C72.2452 22.4807 76.1889 31.2828 76.1889 40.9996C76.1889 50.7165 72.2452 59.5185 65.8825 65.8812C59.5198 72.2439 50.7177 76.1876 41.0009 76.1876C31.2841 76.1876 22.482 72.2439 16.1193 65.8812C9.75658 59.5185 5.81291 50.7165 5.81291 40.9996C5.81291 31.2828 9.75658 22.4807 16.1193 16.118C22.482 9.7553 31.2841 5.81164 41.0009 5.81164Z"/>
</mask>
<path fill-rule="evenodd" clip-rule="evenodd" d="M41.0002 3.10522C51.4645 3.10522 60.9436 7.35225 67.7958 14.2044C74.6479 21.0565 78.8949 30.5357 78.8949 41C78.8949 51.4643 74.6479 60.9434 67.7958 67.7955C60.9436 74.6477 51.4645 78.8947 41.0002 78.8947C30.5359 78.8947 21.0568 74.6477 14.2046 67.7955C7.3525 60.9434 3.10547 51.4643 3.10547 41C3.10547 30.5357 7.3525 21.0565 14.2046 14.2044C21.0568 7.35225 30.5359 3.10522 41.0002 3.10522ZM41.0009 5.81164C50.7177 5.81164 59.5198 9.7553 65.8825 16.118C72.2452 22.4807 76.1889 31.2828 76.1889 40.9996C76.1889 50.7165 72.2452 59.5185 65.8825 65.8812C59.5198 72.2439 50.7177 76.1876 41.0009 76.1876C31.2841 76.1876 22.482 72.2439 16.1193 65.8812C9.75658 59.5185 5.81291 50.7165 5.81291 40.9996C5.81291 31.2828 9.75658 22.4807 16.1193 16.118C22.482 9.7553 31.2841 5.81164 41.0009 5.81164Z" fill="#F52858"/>
<path d="M67.7958 14.2044L68.1493 13.8508L67.7958 14.2044ZM67.7958 67.7955L68.1493 68.1491L67.7958 67.7955ZM14.2046 67.7955L13.8511 68.1491H13.8511L14.2046 67.7955ZM14.2046 14.2044L14.5582 14.5579L14.2046 14.2044ZM65.8825 16.118L66.236 15.7644L65.8825 16.118ZM16.1193 16.118L15.7657 15.7644H15.7657L16.1193 16.118ZM68.1493 13.8508C61.2073 6.9088 51.6025 2.60522 41.0002 2.60522V3.60522C51.3265 3.60522 60.68 7.7957 67.4422 14.5579L68.1493 13.8508ZM79.3949 41C79.3949 30.3977 75.0914 20.7929 68.1493 13.8508L67.4422 14.5579C74.2045 21.3202 78.3949 30.6737 78.3949 41H79.3949ZM68.1493 68.1491C75.0914 61.2071 79.3949 51.6023 79.3949 41H78.3949C78.3949 51.3263 74.2045 60.6797 67.4422 67.442L68.1493 68.1491ZM41.0002 79.3947C51.6025 79.3947 61.2073 75.0911 68.1493 68.1491L67.4422 67.442C60.68 74.2042 51.3265 78.3947 41.0002 78.3947V79.3947ZM13.8511 68.1491C20.7931 75.0911 30.3979 79.3947 41.0002 79.3947V78.3947C30.6739 78.3947 21.3204 74.2042 14.5582 67.442L13.8511 68.1491ZM2.60547 41C2.60547 51.6023 6.90905 61.2071 13.8511 68.1491L14.5582 67.442C7.79594 60.6797 3.60547 51.3263 3.60547 41H2.60547ZM13.8511 13.8508C6.90905 20.7929 2.60547 30.3977 2.60547 41H3.60547C3.60547 30.6737 7.79594 21.3202 14.5582 14.5579L13.8511 13.8508ZM41.0002 2.60522C30.3979 2.60522 20.7931 6.9088 13.8511 13.8508L14.5582 14.5579C21.3204 7.7957 30.6739 3.60522 41.0002 3.60522V2.60522ZM66.236 15.7644C59.7834 9.31186 50.8557 5.31164 41.0009 5.31164V6.31164C50.5797 6.31164 59.2561 10.1988 65.5289 16.4716L66.236 15.7644ZM76.6889 40.9996C76.6889 31.1448 72.6886 22.217 66.236 15.7644L65.5289 16.4716C71.8017 22.7444 75.6889 31.4208 75.6889 40.9996H76.6889ZM66.236 66.2348C72.6886 59.7822 76.6889 50.8545 76.6889 40.9996H75.6889C75.6889 50.5785 71.8017 59.2548 65.5289 65.5277L66.236 66.2348ZM41.0009 76.6876C50.8557 76.6876 59.7834 72.6874 66.236 66.2348L65.5289 65.5277C59.2561 71.8005 50.5797 75.6876 41.0009 75.6876V76.6876ZM15.7657 66.2348C22.2183 72.6874 31.1461 76.6876 41.0009 76.6876V75.6876C31.422 75.6876 22.7456 71.8005 16.4728 65.5277L15.7657 66.2348ZM5.31291 40.9996C5.31291 50.8545 9.31313 59.7822 15.7657 66.2348L16.4728 65.5277C10.2 59.2548 6.31291 50.5785 6.31291 40.9996H5.31291ZM15.7657 15.7644C9.31313 22.217 5.31291 31.1448 5.31291 40.9996H6.31291C6.31291 31.4208 10.2 22.7444 16.4728 16.4716L15.7657 15.7644ZM41.0009 5.31164C31.1461 5.31164 22.2183 9.31186 15.7657 15.7644L16.4728 16.4716C22.7456 10.1988 31.422 6.31164 41.0009 6.31164V5.31164Z" fill="#F52858" mask="url(#path-1-outside-1_1530_2546)"/>
<path fill-rule="evenodd" clip-rule="evenodd" d="M15.0146 69.403C14.3644 70.0318 13.3725 70.0543 12.7914 69.4534C12.2103 68.8525 12.266 67.8619 12.9162 67.2331L21.1618 59.2593C21.812 58.6305 22.8039 58.608 23.385 59.2089C23.9661 59.8098 23.9104 60.8004 23.2602 61.4292L15.0146 69.403Z" fill="#F52858" stroke="#F52858" stroke-width="2"/>
<path fill-rule="evenodd" clip-rule="evenodd" d="M60.9098 23.3069C60.2173 23.8888 59.2274 23.8434 58.691 23.2052C58.1547 22.5669 58.2805 21.584 58.973 21.002L67.7547 13.6229C68.4473 13.041 69.4372 13.0864 69.9735 13.7246C70.5098 14.3629 70.384 15.3458 69.6915 15.9277L60.9098 23.3069Z" fill="#F52858" stroke="#F52858" stroke-width="2"/>
<path fill-rule="evenodd" clip-rule="evenodd" d="M20.7809 20.7797C21.4941 21.3361 21.6555 22.3138 21.1427 22.9711C20.6299 23.6285 19.6423 23.7098 18.9291 23.1533L9.88538 16.0978C9.17218 15.5414 9.01077 14.5637 9.52358 13.9064C10.0364 13.249 11.024 13.1678 11.7372 13.7242L20.7809 20.7797Z" fill="#F52858" stroke="#F52858" stroke-width="2"/>
<path fill-rule="evenodd" clip-rule="evenodd" d="M69.2028 64.9902C69.916 65.5466 70.0774 66.5243 69.5646 67.1816C69.0518 67.8389 68.0642 67.9202 67.351 67.3638L58.3073 60.3082C57.5941 59.7518 57.4326 58.7741 57.9455 58.1168C58.4583 57.4595 59.4459 57.3782 60.1591 57.9346L69.2028 64.9902Z" fill="#F52858" stroke="#F52858" stroke-width="2"/>
<path fill-rule="evenodd" clip-rule="evenodd" d="M41.7078 79.3421C41.7078 80.2467 41.0362 80.9753 40.2025 80.9753C39.3688 80.9753 38.6973 80.2467 38.6973 79.3421V67.8717C38.6973 66.9672 39.3688 66.2385 40.2025 66.2385C41.0362 66.2385 41.7078 66.9672 41.7078 67.8717V79.3421Z" fill="#F52858" stroke="#F52858" stroke-width="2"/>
<path fill-rule="evenodd" clip-rule="evenodd" d="M41.7078 14.1036C41.7078 15.0082 41.0362 15.7368 40.2025 15.7368C39.3688 15.7368 38.6973 15.0082 38.6973 14.1036V2.6332C38.6973 1.72864 39.3688 0.999976 40.2025 0.999976C41.0362 0.999976 41.7078 1.72864 41.7078 2.6332V14.1036Z" fill="#F52858" stroke="#F52858" stroke-width="2"/>
<path fill-rule="evenodd" clip-rule="evenodd" d="M2.39991 41.9053C1.62457 41.9053 1 41.2337 1 40.4C1 39.5664 1.62457 38.8948 2.39991 38.8948L12.2317 38.8948C13.007 38.8948 13.6316 39.5664 13.6316 40.4C13.6316 41.2337 13.007 41.9053 12.2317 41.9053H2.39991Z" fill="#F52858" stroke="#F52858" stroke-width="2"/>
<path fill-rule="evenodd" clip-rule="evenodd" d="M67.8969 41.9053C66.9923 41.9053 66.2637 41.2337 66.2637 40.4C66.2637 39.5664 66.9923 38.8948 67.8969 38.8948L79.3673 38.8948C80.2719 38.8948 81.0005 39.5664 81.0005 40.4C81.0005 41.2337 80.2719 41.9053 79.3673 41.9053L67.8969 41.9053Z" fill="#F52858" stroke="#F52858" stroke-width="2"/>
<path d="M48.551 60.403C49.045 59.5703 49.5003 58.7113 49.9166 57.8144M48.551 60.403C48.551 60.4031 48.5509 60.4031 48.5509 60.4032L48.2929 60.2501C47.2175 62.0657 45.9497 63.7145 44.5013 65.1493L49.9166 57.8144M48.551 60.403C47.543 62.1049 46.3667 63.6637 45.031 65.0405C48.8496 64.2094 52.3356 62.4312 55.2213 59.9724M48.551 60.403L55.2213 59.9724M49.9166 57.8144C51.9641 58.3814 53.7642 59.1058 55.2213 59.9724M49.9166 57.8144L55.2213 59.9724M41.4781 64.5551V64.1649C41.3789 64.2485 41.2789 64.331 41.1781 64.4124L41.4781 64.5551ZM41.4781 64.5551C41.3789 64.6364 41.2789 64.7166 41.1781 64.7957M29.9767 26.306C27.9321 25.7392 26.1322 25.0033 24.674 24.1464C27.5595 21.6875 31.0343 19.9096 34.8631 19.0791C33.5271 20.4561 32.3506 22.015 31.3424 23.7172C30.8484 24.55 30.3931 25.409 29.9767 26.306ZM45.8914 25.2702L45.8936 25.2738C46.2292 25.8207 46.535 26.4008 46.8294 26.9912C45.1243 27.2928 43.3267 27.477 41.4781 27.5435V19.9707C43.2094 21.4309 44.6811 23.2346 45.8914 25.2702ZM49.9167 26.2917C49.4976 25.3929 49.0307 24.5334 48.5539 23.6919L48.554 23.6919L48.551 23.687C47.5438 21.9864 46.3685 20.4288 45.0341 19.0527C48.8625 19.8955 52.3367 21.6742 55.2215 24.133C53.7633 25.002 51.9627 25.7377 49.9167 26.2917Z" fill="white" stroke="white" stroke-width="0.6"/>
</svg>
