<svg width="80" height="80" viewBox="0 0 80 80" fill="none" xmlns="http://www.w3.org/2000/svg">
<path fill-rule="evenodd" clip-rule="evenodd" d="M59.1757 6C55.257 6 51.3383 7.48169 48.3652 10.4548L40.9665 17.8535C37.9934 20.8266 36.502 24.7453 36.502 28.664C36.6287 33.3235 42.185 32.1245 42.2532 28.664C42.2532 26.2172 43.1793 23.7705 45.0314 21.9184L52.4301 14.5197C54.2822 12.6676 56.7289 11.7415 59.1757 11.7415C64.459 11.7415 68.6994 15.9819 68.6994 21.2652C68.6994 23.712 67.7733 26.1588 65.9212 28.0109L58.5225 35.4095C56.6704 37.2616 54.2237 38.1877 51.777 38.1877C48.3262 38.2559 47.1175 43.8122 51.777 43.939C55.6956 43.939 59.6143 42.4476 62.5874 39.4744L69.9861 32.0757C72.9592 29.1026 74.4409 25.1839 74.4409 21.2652C74.4507 12.8138 67.6369 6 59.1757 6Z" fill="white"/>
<path fill-rule="evenodd" clip-rule="evenodd" d="M6 59.1847C6 55.266 7.49142 51.3473 10.4645 48.3742L17.8632 40.9756C20.8364 38.0024 24.755 36.511 28.6737 36.511C33.3332 36.6377 32.1245 42.1941 28.6737 42.2623C26.227 42.2623 23.7802 43.1883 21.9281 45.0404L14.5294 52.4391C12.6773 54.2912 11.7513 56.738 11.7513 59.1847C11.7513 64.4681 15.9916 68.7085 21.275 68.7085C23.7217 68.7085 26.1685 67.7824 28.0206 65.9303L35.4193 58.5316C37.2714 56.6795 38.1974 54.2327 38.1974 51.786C38.2559 48.3255 43.822 47.1265 43.9487 51.786C43.9487 55.7047 42.4573 59.6234 39.4842 62.5965L32.0855 69.9952C29.1124 72.9683 25.1937 74.4597 21.275 74.4597C12.8041 74.4499 6 67.6459 6 59.1847Z" fill="white"/>
<path fill-rule="evenodd" clip-rule="evenodd" d="M25.8274 59.1949C24.5602 60.4523 22.5131 60.4523 21.2556 59.1949C19.9981 57.9276 19.9981 55.8806 21.2556 54.6231L54.6131 21.2656C55.8803 19.9984 57.9274 19.9984 59.1848 21.2656C60.4423 22.5231 60.4423 24.5799 59.1848 25.8374L25.8274 59.1949Z" fill="#F52858"/>
</svg>
