<svg width="36" height="36" viewBox="0 0 36 36" fill="none" xmlns="http://www.w3.org/2000/svg">
<path d="M6.8 26.4L7.694 26.848L7.97 26.294L7.6 25.8L6.8 26.4ZM9.6 29.2L10.2 28.4L9.706 28.03L9.152 28.306L9.6 29.2ZM4 32L3.106 31.552C3.01237 31.7396 2.98007 31.9518 3.01364 32.1587C3.04721 32.3657 3.14497 32.5568 3.2931 32.7052C3.44122 32.8535 3.63223 32.9516 3.83911 32.9854C4.04599 33.0193 4.25829 32.9873 4.446 32.894L4 32ZM12 12L11.446 11.168C11.3089 11.2592 11.1964 11.3829 11.1186 11.5281C11.0408 11.6732 11.0001 11.8353 11 12H12ZM24 24V25C24.1647 24.9999 24.3268 24.9592 24.4719 24.8813C24.6171 24.8035 24.7408 24.6911 24.832 24.554L24 24ZM3 18C3 21.376 4.116 24.494 6 27L7.6 25.8C5.90841 23.5518 4.99565 20.8135 5 18H3ZM18 3C14.0217 3 10.2064 4.58035 7.3934 7.3934C4.58035 10.2064 3 14.0217 3 18H5C5 14.5522 6.36964 11.2456 8.80761 8.80761C11.2456 6.36964 14.5522 5 18 5V3ZM33 18C33 14.0217 31.4196 10.2064 28.6066 7.3934C25.7935 4.58035 21.9782 3 18 3V5C19.7072 5 21.3976 5.33625 22.9749 5.98956C24.5521 6.64288 25.9852 7.60045 27.1924 8.80761C28.3995 10.0148 29.3571 11.4479 30.0104 13.0251C30.6637 14.6023 31 16.2928 31 18H33ZM18 33C21.9782 33 25.7935 31.4196 28.6066 28.6066C31.4196 25.7935 33 21.9782 33 18H31C31 19.7072 30.6637 21.3976 30.0104 22.9749C29.3571 24.5521 28.3995 25.9852 27.1924 27.1924C25.9852 28.3995 24.5521 29.3571 22.9749 30.0104C21.3976 30.6637 19.7072 31 18 31V33ZM9 30C11.5944 31.9512 14.7537 33.0043 18 33V31C15.1865 31.0045 12.4481 30.0917 10.2 28.4L9 30ZM4.446 32.894L10.046 30.094L9.152 28.306L3.55 31.106L4.446 32.894ZM5.904 25.954L3.104 31.554L4.892 32.448L7.694 26.848L5.904 25.954ZM11 12V14H13V12H11ZM22 25H24V23H22V25ZM11 14C11 16.9174 12.1589 19.7153 14.2218 21.7782C16.2847 23.8411 19.0826 25 22 25V23C19.613 23 17.3239 22.0518 15.636 20.364C13.9482 18.6761 13 16.3869 13 14H11ZM12.554 12.832L12.982 12.548L11.872 10.884L11.446 11.168L12.554 12.832ZM14.522 13.216L14.802 14.888L16.774 14.56L16.494 12.886L14.522 13.216ZM14.37 15.886L12.446 17.168L13.554 18.832L15.478 17.55L14.37 15.886ZM14.802 14.888C14.834 15.0783 14.8102 15.2738 14.7335 15.4509C14.6569 15.6279 14.5306 15.7791 14.37 15.886L15.478 17.55C15.9592 17.2295 16.3375 16.7768 16.5674 16.2463C16.7973 15.7159 16.869 15.1303 16.774 14.56L14.802 14.888ZM12.982 12.548C13.121 12.4556 13.2808 12.3995 13.447 12.3847C13.6132 12.3699 13.7805 12.3969 13.9336 12.4633C14.0867 12.5297 14.2207 12.6334 14.3235 12.7649C14.4263 12.8963 14.4945 13.0514 14.522 13.216L16.494 12.886C16.4114 12.3921 16.2065 11.9267 15.8979 11.5323C15.5894 11.1379 15.187 10.827 14.7275 10.628C14.268 10.4289 13.7659 10.3481 13.2672 10.3928C12.7684 10.4375 12.2888 10.6064 11.872 10.884L12.982 12.548ZM24.832 24.554L25.116 24.128L23.452 23.018L23.168 23.446L24.832 24.554ZM23.112 19.506L21.44 19.226L21.112 21.2L22.784 21.478L23.112 19.506ZM18.45 20.522L17.168 22.446L18.832 23.554L20.114 21.63L18.45 20.522ZM21.44 19.226C20.8697 19.1309 20.2841 19.2027 19.7537 19.4326C19.2232 19.6625 18.7705 20.0408 18.45 20.522L20.114 21.63C20.2209 21.4694 20.3721 21.3431 20.5491 21.2665C20.7262 21.1898 20.9217 21.166 21.112 21.198L21.44 19.226ZM25.116 24.128C25.3936 23.7112 25.5625 23.2316 25.6072 22.7328C25.6519 22.2341 25.5711 21.732 25.372 21.2725C25.173 20.813 24.8621 20.4106 24.4677 20.1021C24.0733 19.7935 23.6079 19.5886 23.114 19.506L22.784 21.478C22.9486 21.5055 23.1037 21.5737 23.2351 21.6765C23.3666 21.7793 23.4703 21.9133 23.5367 22.0664C23.6031 22.2195 23.6301 22.3867 23.6153 22.553C23.6005 22.7192 23.5444 22.879 23.452 23.018L25.116 24.128Z" fill="#B5B5C2"/>
</svg>
