<svg width="24" height="24" viewBox="0 0 24 24" fill="none" xmlns="http://www.w3.org/2000/svg">
<g clip-path="url(#clip0_1002_3309)">
<path d="M23.5428 12.2155C23.5428 5.77582 18.3565 0.55542 11.9589 0.55542C5.56128 0.55542 0.375 5.77582 0.375 12.2155C0.375 18.0354 4.61105 22.8592 10.1489 23.7339V15.586H7.20769V12.2155H10.1489V9.64666C10.1489 6.72433 11.8783 5.11015 14.5243 5.11015C15.7917 5.11015 17.1173 5.33788 17.1173 5.33788V8.20736H15.6566C14.2176 8.20736 13.7689 9.10617 13.7689 10.0283V12.2155H16.9816L16.468 15.586H13.7689V23.7339C19.3067 22.8592 23.5428 18.0354 23.5428 12.2155Z" fill="#B5B5C2"/>
</g>
<defs>
<clipPath id="clip0_1002_3309">
<rect width="24" height="24" fill="white"/>
</clipPath>
</defs>
</svg>
