<svg width="81" height="80" viewBox="0 0 81 80" fill="none" xmlns="http://www.w3.org/2000/svg">
<g clip-path="url(#clip0_904_22729)">
<path d="M22.2738 21.4993C23.9582 21.4993 25.3269 20.1307 25.3269 18.4463C25.3269 16.7618 23.9582 15.3932 22.2738 15.3932C20.5893 15.3932 19.2207 16.7618 19.2207 18.4463C19.2207 20.1307 20.5893 21.4993 22.2738 21.4993Z" fill="#F52858"/>
<path d="M44.2063 59.7156C45.3878 60.9087 47.3062 60.9321 48.5111 59.7507C48.7099 59.5518 48.8737 59.3413 49.0141 59.1073L59.7408 40.5315L60.7468 47.6436C60.9807 49.3047 62.5131 50.4745 64.1742 50.2405C65.8352 50.0066 67.005 48.4742 66.771 46.8131L64.5251 30.9628V30.9511L64.5134 30.881L64.5017 30.8108C64.4198 30.3663 64.2444 29.9568 63.987 29.6059C63.9402 29.5474 63.9051 29.4889 63.8583 29.4304L63.8349 29.4071L63.8232 29.3954L63.7882 29.3486L63.7765 29.3369L63.7531 29.3018L63.7297 29.2784L63.6946 29.255L63.6712 29.2316C63.5893 29.1497 63.4957 29.0678 63.4021 28.9859L63.3553 28.9508L63.3436 28.9391L63.2969 28.9041H63.2852L63.2267 28.869L63.1682 28.8339L63.1097 28.7988L63.0512 28.7637H63.0395C62.9927 28.7403 62.9459 28.7169 62.8991 28.6935L62.8523 28.6701L62.8289 28.6584C62.7588 28.6233 62.6886 28.5999 62.6184 28.5648L62.5833 28.5531L62.5482 28.5414L62.5131 28.5297L62.478 28.518L62.4429 28.5063L62.4078 28.4946L62.3727 28.4829L62.326 28.4712L62.2909 28.4595L62.2441 28.4478L62.209 28.4362L62.1622 28.4245L62.1388 28.4128L62.092 28.4011L62.0218 28.3894H61.9984L61.9516 28.3777H61.9282H61.8814H61.8463H61.7996H61.7645H61.7177H61.706L61.5656 28.366H61.5305H61.4954H61.4837H61.355H61.3083H61.2849C61.2381 28.366 61.1913 28.3777 61.1445 28.3777L61.086 28.3894H61.0743H61.0626H61.0509L61.0158 28.4011C60.7585 28.4479 60.5128 28.518 60.2789 28.6233L45.2357 34.6476C43.6799 35.2676 42.9196 37.0456 43.5396 38.6014C44.1712 40.1572 45.9376 40.9175 47.4934 40.2975L54.4769 37.5018L45.7387 52.6385L38.8137 45.5615C38.6383 45.386 38.4394 45.2222 38.2172 45.0936C36.7784 44.2279 34.9184 44.6841 34.0528 46.1229L19.2904 70.5476C18.4248 71.9864 18.881 73.8463 20.3198 74.7236C21.7586 75.5892 23.6185 75.133 24.4959 73.6942L37.2229 52.5683L44.2063 59.7156Z" fill="#F52858"/>
<path d="M33.2692 18.4463C33.2692 16.7618 31.9006 15.3932 30.2162 15.3932C28.5317 15.3932 27.1631 16.7618 27.1631 18.4463C27.1631 20.1307 28.5317 21.4993 30.2162 21.4993C31.9006 21.4993 33.2692 20.1307 33.2692 18.4463Z" fill="#F52858"/>
<path d="M67.1687 21.4993C68.8532 21.4993 70.2218 20.1307 70.2218 18.4463C70.2218 16.7618 68.8532 15.3932 67.1687 15.3932H39.8314C38.1469 15.3932 36.7783 16.7618 36.7783 18.4463C36.7783 20.1307 38.1469 21.4993 39.8314 21.4993H67.1687Z" fill="#F52858"/>
<path d="M78.738 8.01199C77.4864 6.76035 75.7785 6 73.9186 6H7.56971C5.68639 6 3.99024 6.77204 2.75029 8.00029H2.76199C1.52204 9.24024 0.75 10.9481 0.75 12.8197V64.3009C0.75 66.1842 1.52204 67.8921 2.75029 69.1203C3.99024 70.3603 5.69809 71.1206 7.56971 71.1206C10.0262 71.1206 12.4944 71.1206 14.9509 71.1206C16.6354 71.1206 18.004 69.752 18.004 68.0676C18.004 66.3831 16.6354 65.0145 14.9509 65.0145C12.4944 65.0145 10.0262 65.0145 7.56971 65.0145C7.37085 65.0145 7.19539 64.9326 7.06671 64.8039C6.93804 64.6752 6.85616 64.4881 6.85616 64.3009V12.8197C6.85616 12.6209 6.93804 12.4337 7.05502 12.305H7.06671C7.19539 12.1763 7.38255 12.0945 7.56971 12.0945H73.9186C74.1174 12.0945 74.3046 12.1763 74.4333 12.2933L74.445 12.305C74.5737 12.4337 74.6438 12.6092 74.6438 12.8197V64.3009C74.6438 64.4998 74.562 64.6752 74.4333 64.8039V64.8156C74.3046 64.9443 74.1291 65.0145 73.9186 65.0145C60.6067 65.0145 47.2948 65.0145 33.9946 65.0145C32.3102 65.0145 30.9415 66.3831 30.9415 68.0676C30.9415 69.752 32.3102 71.1206 33.9946 71.1206C47.3065 71.1206 60.6184 71.1206 73.9186 71.1206C75.7902 71.1206 77.4981 70.3486 78.738 69.1086L78.7497 69.1203C79.978 67.8804 80.75 66.1725 80.75 64.3009V12.8197C80.75 10.9598 79.978 9.25194 78.738 8.01199Z" fill="white"/>
<path d="M11.2666 18.4463C11.2666 20.1307 12.6352 21.4993 14.3197 21.4993C16.0041 21.4993 17.3728 20.1307 17.3728 18.4463C17.3728 16.7618 16.0041 15.3932 14.3197 15.3932C12.6352 15.4049 11.2666 16.7618 11.2666 18.4463Z" fill="#F52858"/>
</g>
<defs>
<clipPath id="clip0_904_22729">
<rect width="80" height="80" fill="white" transform="translate(0.75)"/>
</clipPath>
</defs>
</svg>
