<svg width="81" height="80" viewBox="0 0 81 80" fill="none" xmlns="http://www.w3.org/2000/svg">
<path fill-rule="evenodd" clip-rule="evenodd" d="M42.8258 28.5404C45.3074 26.0588 48.5611 24.8125 51.8148 24.8125C55.0684 24.8125 58.3221 26.0588 60.8037 28.5404C63.2854 31.0221 64.5317 34.2757 64.5317 37.5294C64.5317 40.7831 63.2854 44.0368 60.8037 46.5184C58.3221 49 55.0684 50.2463 51.8148 50.2463C48.5611 50.2463 45.3074 49.011 42.8258 46.5184C40.3442 44.0368 39.1089 40.7831 39.1089 37.5294C39.1089 34.2757 40.3442 31.0221 42.8258 28.5404ZM46.8956 32.6103C45.539 33.9669 44.8552 35.7537 44.8552 37.5294C44.8552 39.3051 45.5391 41.0919 46.8846 42.4485C48.2413 43.8052 50.028 44.489 51.8037 44.489C53.5794 44.489 55.3662 43.8052 56.7229 42.4485C58.0795 41.0919 58.7522 39.3051 58.7522 37.5294C58.7522 35.7426 58.0684 33.9669 56.7229 32.6103C55.3662 31.2537 53.5794 30.5699 51.8037 30.5699C50.039 30.5699 48.2522 31.2537 46.8956 32.6103Z" fill="white"/>
<path fill-rule="evenodd" clip-rule="evenodd" d="M56.7319 47.412C55.6069 46.287 55.6069 44.4672 56.7319 43.3422C57.8569 42.2172 59.6768 42.2172 60.8018 43.3422L66.8238 49.3532C67.9488 50.4782 67.9488 52.298 66.8238 53.423C65.6988 54.548 63.8789 54.548 62.7539 53.423L56.7319 47.412Z" fill="white"/>
<path fill-rule="evenodd" clip-rule="evenodd" d="M38.4787 4H68.2801C70.3537 4 72.2508 4.84926 73.6184 6.21691C74.9861 7.58455 75.8353 9.4706 75.8353 11.5552V68.4448C75.8353 70.5184 74.9861 72.4154 73.6184 73.7831H73.6074C72.2397 75.1507 70.3537 76 68.2912 76H38.4897C36.4162 76 34.5301 75.1507 33.1625 73.7831L33.1515 73.772C31.7838 72.4044 30.9346 70.5184 30.9346 68.4448V11.5552C30.9346 9.48162 31.7838 7.59559 33.1515 6.22795V6.21691C34.5191 4.84926 36.4052 4 38.4787 4ZM68.2801 9.74633H38.4787C37.9824 9.74633 37.5412 9.94486 37.2103 10.2757H37.1993C36.8794 10.6066 36.6809 11.0478 36.6809 11.5441V68.4338C36.6809 68.9301 36.8794 69.3824 37.1993 69.7022C37.5302 70.0221 37.9824 70.2316 38.4787 70.2316H68.2801C68.7765 70.2316 69.2287 70.0331 69.5485 69.7022H69.5375C69.8574 69.3713 70.0669 68.9301 70.0669 68.4338V11.5441C70.0669 11.0478 69.8684 10.6066 69.5375 10.2757C69.2177 9.95588 68.7765 9.74633 68.2801 9.74633Z" fill="#F52858"/>
<path fill-rule="evenodd" clip-rule="evenodd" d="M48.3523 68.3012C47.5581 68.3012 46.9185 67.6615 46.9185 66.8674C46.9185 66.0733 47.5581 65.4336 48.3523 65.4336H58.4221C59.2162 65.4336 59.8559 66.0733 59.8559 66.8674C59.8559 67.6615 59.2162 68.3012 58.4221 68.3012H48.3523Z" fill="white"/>
<path fill-rule="evenodd" clip-rule="evenodd" d="M28.5859 65.7204L26.5565 65.6101C26.2256 65.588 25.9167 65.4336 25.6741 65.202C25.4314 64.9593 25.255 64.6285 25.2219 64.2535C25.1557 63.5476 25.0785 62.7976 25.0013 62.0034L24.8028 60.0182C23.4241 59.6542 22.0896 59.1468 20.8432 58.5071L19.3763 59.8637C18.7918 60.4042 18.2292 60.9226 17.7109 61.3968C17.4351 61.6505 17.0822 61.7829 16.7403 61.8049C16.4094 61.827 16.0675 61.7277 15.8028 61.5292C15.2403 61.077 14.6668 60.6248 14.1043 60.1836C13.5418 59.7314 12.9682 59.2792 12.4057 58.827C12.141 58.6174 11.9866 58.3086 11.9204 57.9777C11.8653 57.6358 11.9094 57.2608 12.0969 56.941C12.4498 56.3233 12.8249 55.6726 13.2219 54.9777L14.2146 53.2351C13.3101 52.1542 12.516 50.974 11.8542 49.7167L9.88 49.9704C9.08589 50.0696 8.33588 50.1689 7.63 50.2571C7.26602 50.3013 6.89103 50.213 6.60427 50.0255C6.3175 49.849 6.09689 49.5733 5.99763 49.2535C5.7991 48.5586 5.60058 47.8637 5.39103 47.1689C5.1925 46.474 4.99396 45.7792 4.79543 45.0843C4.70719 44.7645 4.75131 44.4226 4.89469 44.1137C5.03807 43.8049 5.30279 43.5292 5.63367 43.3748C6.27338 43.077 6.96822 42.7571 7.68513 42.4262L9.50501 41.588C9.46089 41.0807 9.44984 40.5623 9.44984 40.0329C9.44984 39.1285 9.50499 38.224 9.62632 37.3527L7.8616 36.4152C7.15572 36.0402 6.49396 35.6873 5.86528 35.3564C5.54543 35.1799 5.29177 34.8932 5.15942 34.5733C5.02706 34.2645 5.005 33.9115 5.11529 33.5917C5.34691 32.9079 5.58955 32.224 5.8322 31.5402C6.07484 30.8564 6.30645 30.1726 6.5491 29.4887C6.65939 29.1799 6.89103 28.9152 7.18883 28.7498C7.48662 28.5843 7.86162 28.5071 8.22559 28.5733C8.92045 28.7057 9.6594 28.838 10.4535 28.9814L12.4168 29.3454C13.1447 28.1321 14.005 26.9961 14.9645 25.9593L14.0712 24.1726C13.7072 23.4557 13.3763 22.7829 13.0564 22.1432C12.891 21.8123 12.8579 21.4373 12.9351 21.0954C13.0123 20.7645 13.1888 20.4667 13.4646 20.2682C14.0491 19.849 14.6447 19.4299 15.2292 19.0108C15.8248 18.5917 16.4094 18.1726 17.005 17.7535C17.2807 17.5549 17.6116 17.4887 17.9535 17.5218C18.2954 17.5549 18.6374 17.7093 18.9021 17.9851C19.3984 18.4924 19.9168 19.0329 20.4793 19.6064L21.869 21.0402C23.1484 20.4777 24.505 20.0476 25.9057 19.7498L26.2146 17.7755C26.3359 16.9814 26.4462 16.2424 26.5565 15.5365C26.6116 15.1726 26.7991 14.8417 27.0638 14.6101C27.3175 14.3895 27.6374 14.2461 27.9682 14.2461H28.5859V15.4483V15.4704V15.4924V23.3123C27.2954 23.4887 25.4646 23.8196 23.391 24.5255L20.9756 25.5843L17.7439 22.2535C17.6778 22.1873 17.6116 22.1101 17.5344 22.0439C17.5013 22.066 17.4793 22.088 17.4462 22.1101C17.4131 22.1321 17.38 22.1542 17.3579 22.1762C17.4021 22.2645 17.4462 22.3527 17.4903 22.441L19.5638 26.588L17.766 28.5292C16.9829 29.3785 16.277 30.3049 15.6815 31.2976L14.3249 33.5586L9.7697 32.7204C9.67044 32.6983 9.57116 32.6873 9.48293 32.6652C9.4719 32.6983 9.46086 32.7424 9.4388 32.7755C9.42777 32.8086 9.41674 32.8417 9.40571 32.8858C9.49395 32.9299 9.58221 32.9741 9.67044 33.0292L13.7623 35.213L13.4204 37.827C13.3322 38.5549 13.277 39.2829 13.277 40.0218C13.277 40.441 13.2991 40.8711 13.3212 41.2902L13.5197 43.9262L9.31749 45.8785C9.22926 45.9226 9.14102 45.9667 9.04176 45.9998C9.05279 46.0329 9.06382 46.077 9.07485 46.1101C9.08588 46.1432 9.0969 46.1873 9.10793 46.2204C9.2072 46.2093 9.30645 46.1983 9.40571 46.1873L14.005 45.5917L15.2403 47.9189C15.7807 48.9336 16.4315 49.9042 17.1704 50.7865L18.8579 52.8159L16.5528 56.8417C16.5087 56.9299 16.4535 57.0182 16.4094 57.1064C16.4425 57.1284 16.4646 57.1505 16.4977 57.1726C16.5307 57.1946 16.5528 57.2167 16.5859 57.2388C16.6631 57.1726 16.7293 57.1064 16.8065 57.0402L20.2146 53.8968L22.5748 55.088C25.3101 56.1468 27.3616 56.4887 28.6079 56.6983V64.5182V64.5402V64.5623V65.7204H28.5859Z" fill="white"/>
<path fill-rule="evenodd" clip-rule="evenodd" d="M28.5854 49.8608C25.8611 49.8608 23.3905 48.7578 21.6148 46.9711C19.828 45.1843 18.7251 42.7137 18.7251 39.9894C18.7251 37.2762 19.828 34.8056 21.6148 33.0189C23.4016 31.2321 25.8722 30.1292 28.5854 30.1292C28.5854 36.7027 28.5854 43.2872 28.5854 49.8608Z" fill="white"/>
</svg>
