<svg width="81" height="80" viewBox="0 0 81 80" fill="none" xmlns="http://www.w3.org/2000/svg">
<mask id="path-1-outside-1_904_22759" maskUnits="userSpaceOnUse" x="21.75" y="21" width="38" height="38" fill="black">
<rect fill="white" x="21.75" y="21" width="38" height="38"/>
<path fill-rule="evenodd" clip-rule="evenodd" d="M40.75 22C45.7205 22 50.2231 24.0173 53.4779 27.2721C56.7327 30.5269 58.75 35.0295 58.75 40C58.75 44.9705 56.7327 49.4731 53.4779 52.7279C50.2231 55.9827 45.7205 58 40.75 58C35.7795 58 31.2769 55.9827 28.0221 52.7279C24.7673 49.4731 22.75 44.9705 22.75 40C22.75 35.0295 24.7673 30.5269 28.0221 27.2721C31.2769 24.0173 35.7795 22 40.75 22ZM40.75 23.2858C45.3655 23.2858 49.5465 25.1591 52.5687 28.1813C55.591 31.2036 57.4643 35.3846 57.4643 40.0001C57.4643 44.6156 55.591 48.7966 52.5687 51.8189C49.5465 54.8411 45.3655 56.7144 40.75 56.7144C36.1345 56.7144 31.9535 54.8411 28.9312 51.8189C25.9089 48.7966 24.0357 44.6156 24.0357 40.0001C24.0357 35.3846 25.9089 31.2036 28.9312 28.1813C31.9535 25.1591 36.1345 23.2858 40.75 23.2858Z"/>
</mask>
<path fill-rule="evenodd" clip-rule="evenodd" d="M40.75 22C45.7205 22 50.2231 24.0173 53.4779 27.2721C56.7327 30.5269 58.75 35.0295 58.75 40C58.75 44.9705 56.7327 49.4731 53.4779 52.7279C50.2231 55.9827 45.7205 58 40.75 58C35.7795 58 31.2769 55.9827 28.0221 52.7279C24.7673 49.4731 22.75 44.9705 22.75 40C22.75 35.0295 24.7673 30.5269 28.0221 27.2721C31.2769 24.0173 35.7795 22 40.75 22ZM40.75 23.2858C45.3655 23.2858 49.5465 25.1591 52.5687 28.1813C55.591 31.2036 57.4643 35.3846 57.4643 40.0001C57.4643 44.6156 55.591 48.7966 52.5687 51.8189C49.5465 54.8411 45.3655 56.7144 40.75 56.7144C36.1345 56.7144 31.9535 54.8411 28.9312 51.8189C25.9089 48.7966 24.0357 44.6156 24.0357 40.0001C24.0357 35.3846 25.9089 31.2036 28.9312 28.1813C31.9535 25.1591 36.1345 23.2858 40.75 23.2858Z" fill="#F52858"/>
<path d="M53.4779 27.2721L53.1243 27.6257V27.6257L53.4779 27.2721ZM53.4779 52.7279L53.8314 53.0815L53.4779 52.7279ZM28.0221 52.7279L27.6685 53.0815L28.0221 52.7279ZM28.0221 27.2721L28.3757 27.6257L28.0221 27.2721ZM52.5687 28.1813L52.9223 27.8278L52.5687 28.1813ZM52.5687 51.8189L52.9223 52.1724L52.5687 51.8189ZM28.9312 51.8189L28.5777 52.1724L28.9312 51.8189ZM28.9312 28.1813L29.2848 28.5349L28.9312 28.1813ZM53.8314 26.9185C50.4868 23.5739 45.8585 21.5 40.75 21.5V22.5C45.5826 22.5 49.9595 24.4608 53.1243 27.6257L53.8314 26.9185ZM59.25 40C59.25 34.8915 57.1761 30.2632 53.8314 26.9185L53.1243 27.6257C56.2892 30.7905 58.25 35.1675 58.25 40H59.25ZM53.8314 53.0815C57.1761 49.7368 59.25 45.1085 59.25 40H58.25C58.25 44.8326 56.2892 49.2095 53.1243 52.3743L53.8314 53.0815ZM40.75 58.5C45.8585 58.5 50.4868 56.4261 53.8314 53.0815L53.1243 52.3743C49.9595 55.5392 45.5826 57.5 40.75 57.5V58.5ZM27.6685 53.0815C31.0132 56.4261 35.6415 58.5 40.75 58.5V57.5C35.9175 57.5 31.5405 55.5392 28.3757 52.3743L27.6685 53.0815ZM22.25 40C22.25 45.1085 24.3239 49.7368 27.6685 53.0815L28.3757 52.3743C25.2108 49.2095 23.25 44.8326 23.25 40H22.25ZM27.6685 26.9185C24.3239 30.2632 22.25 34.8915 22.25 40H23.25C23.25 35.1675 25.2108 30.7905 28.3757 27.6257L27.6685 26.9185ZM40.75 21.5C35.6415 21.5 31.0132 23.5739 27.6685 26.9185L28.3757 27.6257C31.5405 24.4608 35.9175 22.5 40.75 22.5V21.5ZM52.9223 27.8278C49.8101 24.7156 45.5035 22.7858 40.75 22.7858V23.7858C45.2275 23.7858 49.2828 25.6025 52.2152 28.5349L52.9223 27.8278ZM57.9643 40.0001C57.9643 35.2466 56.0345 30.94 52.9223 27.8278L52.2152 28.5349C55.1476 31.4673 56.9643 35.5226 56.9643 40.0001H57.9643ZM52.9223 52.1724C56.0345 49.0602 57.9643 44.7536 57.9643 40.0001H56.9643C56.9643 44.4776 55.1476 48.5329 52.2152 51.4653L52.9223 52.1724ZM40.75 57.2144C45.5035 57.2144 49.8101 55.2846 52.9223 52.1724L52.2152 51.4653C49.2828 54.3977 45.2275 56.2144 40.75 56.2144V57.2144ZM28.5777 52.1724C31.6898 55.2846 35.9965 57.2144 40.75 57.2144V56.2144C36.2725 56.2144 32.2172 54.3977 29.2848 51.4653L28.5777 52.1724ZM23.5357 40.0001C23.5357 44.7536 25.4655 49.0602 28.5777 52.1724L29.2848 51.4653C26.3524 48.5329 24.5357 44.4776 24.5357 40.0001H23.5357ZM28.5777 27.8278C25.4655 30.94 23.5357 35.2466 23.5357 40.0001H24.5357C24.5357 35.5226 26.3524 31.4673 29.2848 28.5349L28.5777 27.8278ZM40.75 22.7858C35.9965 22.7858 31.6898 24.7156 28.5777 27.8278L29.2848 28.5349C32.2172 25.6025 36.2725 23.7858 40.75 23.7858V22.7858Z" fill="#F52858" mask="url(#path-1-outside-1_904_22759)"/>
<path fill-rule="evenodd" clip-rule="evenodd" d="M16.0646 66.9828C15.4469 67.5802 14.5046 67.6016 13.9526 67.0307C13.4005 66.4599 13.4534 65.5188 14.0712 64.9214L21.9044 57.3463C22.5222 56.749 23.4645 56.7276 24.0165 57.2985C24.5686 57.8693 24.5156 58.8104 23.8979 59.4078L16.0646 66.9828Z" fill="#F52858" stroke="#F52858" stroke-width="2"/>
<path fill-rule="evenodd" clip-rule="evenodd" d="M59.6652 23.1914C59.0073 23.7443 58.0669 23.7012 57.5574 23.0948C57.0479 22.4885 57.1674 21.5547 57.8253 21.0018L66.1679 13.9916C66.8258 13.4388 67.7662 13.4819 68.2757 14.0883C68.7852 14.6946 68.6657 15.6284 68.0078 16.1812L59.6652 23.1914Z" fill="#F52858" stroke="#F52858" stroke-width="2"/>
<path fill-rule="evenodd" clip-rule="evenodd" d="M21.5425 20.7907C22.22 21.3193 22.3734 22.2481 21.8862 22.8725C21.399 23.497 20.4608 23.5742 19.7833 23.0456L11.1917 16.3428C10.5142 15.8142 10.3609 14.8854 10.848 14.261C11.3352 13.6365 12.2734 13.5593 12.951 14.0879L21.5425 20.7907Z" fill="#F52858" stroke="#F52858" stroke-width="2"/>
<path fill-rule="evenodd" clip-rule="evenodd" d="M67.5425 62.7907C68.22 63.3193 68.3734 64.2481 67.8862 64.8725C67.399 65.497 66.4608 65.5742 65.7833 65.0456L57.1917 58.3428C56.5142 57.8142 56.3609 56.8854 56.848 56.261C57.3352 55.6365 58.2734 55.5593 58.951 56.0879L67.5425 62.7907Z" fill="#F52858" stroke="#F52858" stroke-width="2"/>
<path fill-rule="evenodd" clip-rule="evenodd" d="M41.4235 76.4245C41.4235 77.2838 40.7855 77.9761 39.9935 77.9761C39.2015 77.9761 38.5635 77.2838 38.5635 76.4245V65.5276C38.5635 64.6683 39.2015 63.9761 39.9935 63.9761C40.7855 63.9761 41.4235 64.6683 41.4235 65.5276V76.4245Z" fill="#F52858" stroke="#F52858" stroke-width="2"/>
<path fill-rule="evenodd" clip-rule="evenodd" d="M41.4235 14.4484C41.4235 15.3078 40.7855 16 39.9935 16C39.2015 16 38.5635 15.3078 38.5635 14.4484V3.55157C38.5635 2.69223 39.2015 2 39.9935 2C40.7855 2 41.4235 2.69223 41.4235 3.55157V14.4484Z" fill="#F52858" stroke="#F52858" stroke-width="2"/>
<path fill-rule="evenodd" clip-rule="evenodd" d="M4.07991 40.86C3.34334 40.86 2.75 40.222 2.75 39.43C2.75 38.638 3.34334 38 4.07991 38L13.4201 38C14.1567 38 14.75 38.638 14.75 39.43C14.75 40.222 14.1567 40.86 13.4201 40.86H4.07991Z" fill="#F52858" stroke="#F52858" stroke-width="2"/>
<path fill-rule="evenodd" clip-rule="evenodd" d="M66.3016 40.86C65.4422 40.86 64.75 40.222 64.75 39.43C64.75 38.638 65.4422 38 66.3016 38L77.1984 38C78.0578 38 78.75 38.638 78.75 39.43C78.75 40.222 78.0578 40.86 77.1984 40.86L66.3016 40.86Z" fill="#F52858" stroke="#F52858" stroke-width="2"/>
<path d="M36.035 49.3118C35.8137 48.9428 35.6133 48.5645 35.4296 48.1816C34.6083 48.4171 33.8791 48.7063 33.2691 49.0432C34.4551 50.0137 35.8433 50.743 37.3661 51.1543C36.8687 50.5908 36.4268 49.9731 36.035 49.3118ZM36.035 49.3118C36.0349 49.3116 36.0348 49.3114 36.0346 49.3112L36.2927 49.1583L36.0355 49.3126C36.0353 49.3124 36.0352 49.3121 36.035 49.3118ZM35.4286 32.8325C34.6099 32.597 33.8813 32.3042 33.2709 31.9697C34.4576 30.9991 35.8462 30.2704 37.3655 29.8634C36.8674 30.4276 36.4206 31.0466 36.0275 31.7103C36.0275 31.7104 36.0274 31.7104 36.0274 31.7105L36.2855 31.8634C36.0328 32.2894 35.8017 32.7299 35.5923 33.1921L35.4286 32.8325ZM42.9384 32.6088L42.9384 32.6089L42.9406 32.6124C43.061 32.8086 43.1735 33.0146 43.2824 33.2264C42.5935 33.339 41.8736 33.4117 41.1349 33.4442V30.3592C41.8312 30.9968 42.4328 31.7586 42.9384 32.6088ZM45.0715 32.8265C44.885 32.4377 44.6815 32.0647 44.4755 31.701L44.4755 31.701L44.4726 31.6961C44.0803 31.0338 43.6347 30.416 43.1379 29.8528C44.657 30.2642 46.045 30.9935 47.2312 31.9643C46.6206 32.3029 45.8914 32.5956 45.0715 32.8265ZM44.4726 49.2967C44.6874 48.9345 44.8871 48.5619 45.0715 48.1746C45.8923 48.4101 46.6211 48.6992 47.2308 49.036C46.0439 50.0066 44.6518 50.7356 43.1352 51.143C43.6331 50.579 44.0796 49.9601 44.4726 49.2967ZM42.939 48.4046L42.9384 48.4056C42.4328 49.2558 41.8312 50.0177 41.1349 50.6552V47.563C41.8747 47.5955 42.5982 47.6682 43.2842 47.7807C43.1749 47.9938 43.0612 48.201 42.939 48.4046ZM37.5544 48.3984L37.5544 48.3983L37.5522 48.3948C37.431 48.1972 37.3178 47.9928 37.2089 47.7811C37.8982 47.6683 38.6186 47.5955 39.3579 47.563V50.648C38.6616 50.0105 38.0599 49.2486 37.5544 48.3984ZM49.3009 31.449C46.9868 29.1349 43.7846 27.7 40.25 27.7C36.7155 27.7 33.5132 29.1349 31.1991 31.449C28.8849 33.7632 27.45 36.9655 27.45 40.5C27.45 44.0346 28.8849 47.2368 31.1991 49.551C33.5132 51.8651 36.7155 53.3 40.25 53.3C43.7846 53.3 46.9868 51.8651 49.3009 49.551C51.6151 47.2368 53.05 44.0346 53.05 40.5C53.05 36.9655 51.6151 33.7632 49.3009 31.449ZM51.2321 39.6151H46.6844C46.6061 37.8522 46.2928 36.0993 45.7373 34.4821C46.803 34.1615 47.7582 33.7462 48.5467 33.2455C50.064 34.9803 51.046 37.1871 51.2321 39.6151ZM41.1349 39.6151V35.2214C42.1313 35.1777 43.0953 35.0677 44.0055 34.8996C44.5263 36.3715 44.8272 37.9825 44.9061 39.6151H41.1349ZM36.4868 34.9011C37.3978 35.0742 38.3662 35.1843 39.3579 35.223V39.6151H35.5867C35.6656 37.983 35.9663 36.3726 36.4868 34.9011ZM31.9467 33.2449C32.7398 33.7454 33.6947 34.1609 34.7556 34.4817C34.1999 36.0993 33.8863 37.8524 33.8022 39.6151H29.2551C29.4533 37.1801 30.436 34.9732 31.9467 33.2449ZM39.3579 30.3592V33.4442C38.6192 33.4117 37.8994 33.339 37.2105 33.2264C37.3208 33.0151 37.436 32.8091 37.5545 32.6086C38.06 31.7584 38.6616 30.9967 39.3579 30.3592ZM31.9465 47.7614C30.4357 46.0267 29.4538 43.8201 29.2616 41.3922H33.8084C33.8867 43.155 34.2 44.9079 34.7554 46.5251C33.69 46.8457 32.735 47.2609 31.9465 47.7614ZM39.3579 45.7857C38.3676 45.8285 37.399 45.9337 36.4868 46.1063C35.9662 44.6349 35.6655 43.0296 35.5866 41.3922H39.3579V45.7857ZM44.9061 41.3922C44.8272 43.0242 44.5265 44.6346 44.006 46.1061C43.095 45.933 42.1266 45.8229 41.1349 45.7842V41.3922H44.9061ZM48.5466 47.7617C47.7572 47.261 46.7975 46.8459 45.7369 46.5254C46.2926 44.9027 46.6064 43.1549 46.6906 41.3922H51.2376C51.0392 43.8211 50.0568 46.0334 48.5466 47.7617Z" fill="white" stroke="white" stroke-width="0.6"/>
</svg>
