<svg width="22" height="20" viewBox="0 0 22 20" fill="none" xmlns="http://www.w3.org/2000/svg">
<g clip-path="url(#clip0_1002_3301)">
<path d="M20.3797 0.776595L1.10014 8.57975C0.47567 8.83252 0.513502 9.76324 1.15632 9.96036L6.05545 11.4629L7.88381 17.4885C8.0748 18.1179 8.84275 18.3087 9.2873 17.8373L11.8203 15.1511L16.7902 18.94C17.3984 19.4037 18.2646 19.0592 18.419 18.2922L21.7107 1.94728C21.8719 1.14665 21.1135 0.479605 20.3797 0.776595ZM17.9625 4.40395L9.0073 12.6289C8.91804 12.7109 8.86123 12.8243 8.84794 12.9473L8.50316 16.1307C8.4919 16.2345 8.35202 16.2482 8.32216 16.1485L6.90362 11.401C6.83865 11.1837 6.92336 10.9482 7.10954 10.8283L17.6847 4.01615C17.9279 3.85938 18.1769 4.20709 17.9625 4.40395Z" fill="#B5B5C2"/>
</g>
<defs>
<clipPath id="clip0_1002_3301">
<rect width="22" height="19" fill="white" transform="translate(0 0.5)"/>
</clipPath>
</defs>
</svg>
