<svg width="22" height="18" viewBox="0 0 22 18" fill="none" xmlns="http://www.w3.org/2000/svg">
<g clip-path="url(#clip0_1002_3305)">
<path d="M19.3675 4.60569C19.38 4.7872 19.38 4.9687 19.38 5.15188C19.38 10.7334 15.131 17.1705 7.36147 17.1705V17.1671C5.06633 17.1705 2.81886 16.513 0.886719 15.2735C1.22045 15.3136 1.55586 15.3337 1.8921 15.3345C3.79413 15.3362 5.64179 14.698 7.13815 13.5228C5.33064 13.4885 3.74561 12.31 3.1919 10.5895C3.82507 10.7116 4.47748 10.6865 5.09895 10.5167C3.12833 10.1186 1.7106 8.38716 1.7106 6.3764C1.7106 6.358 1.7106 6.34043 1.7106 6.32287C2.29777 6.64991 2.95519 6.83141 3.62768 6.85149C1.77165 5.61107 1.19954 3.14195 2.32035 1.21149C4.46494 3.8504 7.62913 5.45466 11.0258 5.62446C10.6854 4.15737 11.1505 2.62002 12.2479 1.58871C13.9491 -0.0105309 16.6249 0.0714387 18.2241 1.77189C19.1701 1.58537 20.0768 1.23825 20.9065 0.746432C20.5912 1.72421 19.9312 2.55478 19.0497 3.08256C19.8869 2.98387 20.7049 2.75971 21.4753 2.41761C20.9082 3.26741 20.1939 4.00765 19.3675 4.60569Z" fill="#B5B5C2"/>
</g>
<defs>
<clipPath id="clip0_1002_3305">
<rect width="22" height="18" fill="white"/>
</clipPath>
</defs>
</svg>
