<svg width="25" height="26" viewBox="0 0 25 26" fill="none" xmlns="http://www.w3.org/2000/svg">
<g clip-path="url(#clip0_1002_3293)">
<mask id="mask0_1002_3293" style="mask-type:luminance" maskUnits="userSpaceOnUse" x="0" y="0" width="25" height="25">
<path d="M24.3645 0.70166H0.480469V24.5857H24.3645V0.70166Z" fill="white"/>
</mask>
<g mask="url(#mask0_1002_3293)">
<path fill-rule="evenodd" clip-rule="evenodd" d="M23.5215 14.5287C24.2341 8.53083 23.1792 4.74422 21.2764 3.03153L21.2774 3.03054C18.2064 0.105741 7.83471 -0.327158 4.16055 3.1619C2.51056 4.86861 1.92938 7.37345 1.86569 10.4744C1.802 13.5763 1.72637 19.3871 7.14108 20.9635H7.14605L7.14108 23.3708C7.14108 23.3708 7.10426 24.346 7.72723 24.5421C8.39823 24.7595 8.72328 24.3706 10.6097 22.1139C10.7265 21.9742 10.8492 21.8273 10.9784 21.673C14.6845 21.9944 17.5306 21.258 17.8541 21.1505C17.9209 21.1281 18.0156 21.1033 18.133 21.0724C19.3305 20.7578 22.898 19.8205 23.5215 14.5287ZM12.3148 4.97467C12.3919 4.88442 12.5058 4.82873 12.6444 4.82873H12.6454C14.3434 4.84043 15.8823 5.45332 17.0008 6.59281C18.1197 7.73266 18.8079 9.38914 18.8241 11.47C18.8257 11.6094 18.7746 11.7262 18.6875 11.8073C18.6026 11.8863 18.4923 11.9236 18.3862 11.9245C18.28 11.9254 18.1691 11.89 18.083 11.8123C17.9946 11.7324 17.9421 11.6162 17.9419 11.4767C17.9286 9.60974 17.3215 8.18137 16.3663 7.21746C15.4104 6.25289 14.0947 5.74198 12.6432 5.73081C12.5048 5.72901 12.3908 5.67193 12.3143 5.58145C12.2404 5.49405 12.207 5.38321 12.207 5.27791C12.207 5.17264 12.2404 5.06173 12.3148 4.97467ZM13.1858 6.39464C13.047 6.38454 12.929 6.43257 12.8458 6.51793C12.7656 6.60016 12.725 6.70909 12.7179 6.81436C12.7109 6.91967 12.7367 7.03295 12.8046 7.12537C12.8749 7.22109 12.9843 7.28567 13.1228 7.29589C14.2243 7.37947 15.0517 7.79529 15.5988 8.41743C16.1466 9.04043 16.4248 9.88341 16.4026 10.841C16.3995 10.9799 16.4497 11.0968 16.5356 11.1786C16.6191 11.2582 16.7284 11.2972 16.8342 11.3002C16.9401 11.3032 17.0517 11.2703 17.1391 11.194C17.2289 11.1156 17.2828 11.0002 17.2847 10.8608C17.3096 9.70051 16.9643 8.63346 16.2676 7.82977C15.5698 7.02477 14.5289 6.49528 13.1858 6.39464ZM15.9265 13.4138C15.4349 13.1292 14.9343 13.3064 14.7273 13.586L14.2944 14.1463C14.0745 14.4309 13.6635 14.3931 13.6635 14.3931C10.6641 13.5999 9.86195 10.4612 9.86195 10.4612C9.86195 10.4612 9.82513 10.0363 10.0998 9.80837L10.6412 9.36054C10.9119 9.14559 11.083 8.6281 10.8074 8.11957C10.2521 7.11632 9.8343 6.6087 9.55443 6.26866C9.46312 6.15772 9.3865 6.06462 9.32456 5.97796C9.05985 5.64657 8.66178 5.57193 8.24779 5.79585H8.23884C7.37802 6.2994 6.43559 7.24183 6.73713 8.21212C6.82635 8.38951 6.92852 8.6342 7.05218 8.93037C7.64168 10.3422 8.71956 12.9236 11.2104 14.9603C12.6265 16.1257 14.8676 17.3199 15.819 17.5955L15.828 17.6095C16.7654 17.922 17.677 16.9427 18.1636 16.056V16.0491C18.3796 15.6201 18.3079 15.2141 17.9925 14.9484C17.4332 14.403 16.5893 13.801 15.9265 13.4138ZM15.1868 8.66247C14.8144 8.26505 14.2853 8.05016 13.628 8.0137C13.4893 8.0055 13.3721 8.05499 13.2899 8.14103C13.2106 8.22407 13.1708 8.33338 13.1649 8.43891C13.1589 8.54447 13.1862 8.65768 13.2559 8.74937C13.3282 8.84438 13.4394 8.90703 13.5788 8.91528C14.0331 8.94175 14.3458 9.07187 14.5526 9.29444C14.761 9.51871 14.8836 9.85996 14.9076 10.3538C14.9139 10.493 14.9709 10.6068 15.0622 10.6831C15.1511 10.7575 15.2631 10.7886 15.3691 10.7835C15.4752 10.7784 15.5836 10.7368 15.6652 10.6546C15.749 10.5701 15.7956 10.4511 15.7894 10.3119C15.7564 9.61841 15.5581 9.05876 15.1868 8.66247Z" fill="#B5B5C2"/>
</g>
</g>
<defs>
<clipPath id="clip0_1002_3293">
<rect width="25" height="25" fill="white" transform="translate(0 0.5)"/>
</clipPath>
</defs>
</svg>
